STARTFONT 2.1
FONT -FontForge-Arial-Book-R-Normal--32-310-75-75-P-164-ISO10646-1
SIZE 31 75 75
FONTBOUNDINGBOX 85 43 -21 -10
COMMENT "Generated by fontforge, http://fontforge.sourceforge.net"
COMMENT "(c) 2017 The Monotype Corporation. All Rights Reserved. "
COMMENT ""
COMMENT "Hebrew OpenType Layout logic copyright (c) 2003 & 2007, Ralph Hancock & John Hudson. This layout logic for Biblical Hebrew is open source software under the MIT License; see embedded license description for details."
STARTPROPERTIES 40
FOUNDRY "FontForge"
FAMILY_NAME "Arial"
WEIGHT_NAME "Book"
SLANT "R"
SETWIDTH_NAME "Normal"
ADD_STYLE_NAME ""
PIXEL_SIZE 32
POINT_SIZE 310
RESOLUTION_X 75
RESOLUTION_Y 75
SPACING "P"
AVERAGE_WIDTH 164
CHARSET_REGISTRY "ISO10646"
CHARSET_ENCODING "1"
FONTNAME_REGISTRY ""
CHARSET_COLLECTIONS "ASCII ISOLatin1Encoding ISO8859-2 ISO8859-5 ISO8859-7 ISO8859-9 ISO8859-8 ISO8859-6 ISO8859-4 ISO10646-1"
FONT_NAME "ArialMT"
FACE_NAME "Arial"
COPYRIGHT "(c) 2017 The Monotype Corporation. All Rights Reserved. "
FONT_VERSION "7.00"
FONT_ASCENT 26
FONT_DESCENT 6
UNDERLINE_POSITION -5
UNDERLINE_THICKNESS 3
X_HEIGHT 16
CAP_HEIGHT 22
RAW_ASCENT 799
RAW_DESCENT 200
NORM_SPACE 9
RELATIVE_WEIGHT 40
RELATIVE_SETWIDTH 50
SUPERSCRIPT_X 0
SUPERSCRIPT_Y 15
SUPERSCRIPT_SIZE 20
SUBSCRIPT_X 0
SUBSCRIPT_Y 4
SUBSCRIPT_SIZE 20
FIGURE_WIDTH 18
AVG_LOWERCASE_WIDTH 173
AVG_UPPERCASE_WIDTH 227
ENDPROPERTIES
CHARS 4604
STARTCHAR space
ENCODING 32
SWIDTH 277 0
DWIDTH 9 0
BBX 1 1 0 0
BITMAP
00
ENDCHAR
STARTCHAR exclam
ENCODING 33
SWIDTH 277 0
DWIDTH 11 0
BBX 3 23 4 0
BITMAP
E0
E0
E0
E0
E0
E0
E0
E0
E0
E0
E0
E0
40
40
40
40
40
40
00
00
E0
E0
E0
ENDCHAR
STARTCHAR quotedbl
ENCODING 34
SWIDTH 354 0
DWIDTH 11 0
BBX 9 8 1 15
BITMAP
E380
E380
E380
E380
E380
E380
E380
4100
ENDCHAR
STARTCHAR numbersign
ENCODING 35
SWIDTH 556 0
DWIDTH 18 0
BBX 17 23 0 0
BITMAP
038700
038700
070E00
070E00
070E00
070E00
FFFF80
FFFF80
FFFF80
0E1C00
0E1C00
1E3C00
1C3800
1C3800
FFFF80
FFFF80
FFFF80
387000
387000
387000
387000
70E000
70E000
ENDCHAR
STARTCHAR dollar
ENCODING 36
SWIDTH 556 0
DWIDTH 18 0
BBX 16 27 1 -3
BITMAP
0180
07E0
1FF8
3FFC
799C
718E
718E
7180
7180
3D80
3F80
1FF0
03FC
01FE
019E
018F
0187
E187
E187
F18F
799E
3FFC
1FF8
07F0
0180
0180
0180
ENDCHAR
STARTCHAR percent
ENCODING 37
SWIDTH 889 0
DWIDTH 28 0
BBX 24 23 2 0
BITMAP
1E0070
7F80E0
7380E0
E1C1C0
E1C1C0
E1C380
E1C380
E1C700
E1C700
738E00
7F0E00
1E1C78
001DFE
0039CE
007B87
007387
00E387
00E387
01C387
01C387
0381CE
0381FE
070078
ENDCHAR
STARTCHAR ampersand
ENCODING 38
SWIDTH 666 0
DWIDTH 21 0
BBX 19 23 1 0
BITMAP
03E000
07F800
0FF800
1E3C00
1C1C00
1C1C00
1C1C00
0E3800
07F000
07E000
0FC000
1FC000
3CE000
7071C0
E03B80
E03B80
E01F00
E00E00
F00F00
783F80
3FFDC0
1FF9E0
07E080
ENDCHAR
STARTCHAR quotesingle
ENCODING 39
SWIDTH 190 0
DWIDTH 6 0
BBX 3 8 1 15
BITMAP
E0
E0
E0
E0
E0
E0
E0
40
ENDCHAR
STARTCHAR parenleft
ENCODING 40
SWIDTH 333 0
DWIDTH 11 0
BBX 8 29 2 -6
BITMAP
03
06
0C
1C
18
38
30
70
70
70
E0
E0
E0
E0
E0
E0
E0
E0
E0
70
70
70
38
38
18
1C
0C
06
03
ENDCHAR
STARTCHAR parenright
ENCODING 41
SWIDTH 333 0
DWIDTH 11 0
BBX 8 29 1 -6
BITMAP
C0
60
30
38
18
1C
0C
0E
0E
0E
07
07
07
07
07
07
07
07
07
0E
0E
0E
1C
1C
18
38
30
60
C0
ENDCHAR
STARTCHAR asterisk
ENCODING 42
SWIDTH 389 0
DWIDTH 12 0
BBX 10 10 1 13
BITMAP
0C00
0C00
0C00
EDC0
FFC0
3F00
1E00
3F00
7380
2100
ENDCHAR
STARTCHAR plus
ENCODING 43
SWIDTH 583 0
DWIDTH 19 0
BBX 15 15 2 4
BITMAP
0380
0380
0380
0380
0380
0380
FFFE
FFFE
FFFE
0380
0380
0380
0380
0380
0380
ENDCHAR
STARTCHAR comma
ENCODING 44
SWIDTH 277 0
DWIDTH 9 0
BBX 3 8 3 -5
BITMAP
E0
E0
E0
60
60
60
40
C0
ENDCHAR
STARTCHAR hyphen
ENCODING 45
SWIDTH 333 0
DWIDTH 11 0
BBX 9 3 1 7
BITMAP
FF80
FF80
FF80
ENDCHAR
STARTCHAR period
ENCODING 46
SWIDTH 277 0
DWIDTH 9 0
BBX 3 3 3 0
BITMAP
E0
E0
E0
ENDCHAR
STARTCHAR slash
ENCODING 47
SWIDTH 277 0
DWIDTH 9 0
BBX 9 23 0 0
BITMAP
0180
0180
0300
0300
0300
0600
0600
0600
0C00
0C00
0C00
1C00
1800
1800
1800
3000
3000
3000
6000
6000
6000
E000
C000
ENDCHAR
STARTCHAR zero
ENCODING 48
SWIDTH 556 0
DWIDTH 18 0
BBX 16 23 1 0
BITMAP
07E0
1FF8
3FFC
7C3C
701E
700E
E00F
E007
E007
E007
E007
E007
E007
E007
E007
E007
E007
700E
700E
7C3E
3FFC
1FF8
07E0
ENDCHAR
STARTCHAR one
ENCODING 49
SWIDTH 556 0
DWIDTH 18 0
BBX 9 23 3 0
BITMAP
0180
0380
0780
0F80
3F80
7B80
F380
C380
0380
0380
0380
0380
0380
0380
0380
0380
0380
0380
0380
0380
0380
0380
0380
ENDCHAR
STARTCHAR two
ENCODING 50
SWIDTH 556 0
DWIDTH 18 0
BBX 15 23 1 0
BITMAP
0FE0
3FF8
7FFC
783C
E01E
E00E
000E
000E
000E
001C
001C
0038
0070
00E0
01C0
0780
0F00
1C00
3800
7000
7FFE
FFFE
FFFE
ENDCHAR
STARTCHAR three
ENCODING 51
SWIDTH 556 0
DWIDTH 18 0
BBX 16 23 1 0
BITMAP
07E0
1FF8
3FFC
783C
F01E
E00E
000E
001E
003C
03F8
03F8
03FC
001E
000F
0007
0007
0007
E007
F00E
781E
3FFC
1FF8
07E0
ENDCHAR
STARTCHAR four
ENCODING 52
SWIDTH 556 0
DWIDTH 18 0
BBX 16 23 1 0
BITMAP
0018
0038
0078
00F8
00F8
01F8
03B8
07B8
0738
0E38
1C38
1C38
3838
7038
E038
FFFF
FFFF
FFFF
0038
0038
0038
0038
0038
ENDCHAR
STARTCHAR five
ENCODING 53
SWIDTH 556 0
DWIDTH 18 0
BBX 16 23 1 0
BITMAP
3FFE
3FFE
3FFE
7000
7000
7000
7000
73E0
6FF8
FFFC
F81E
E00E
0007
0007
0007
0007
0007
E00F
F00E
781E
7FFC
1FF8
0FE0
ENDCHAR
STARTCHAR six
ENCODING 54
SWIDTH 556 0
DWIDTH 18 0
BBX 16 23 1 0
BITMAP
03F0
0FFC
1FFE
3C1E
780F
7007
7000
E000
E3F0
EFF8
FFFC
FC1E
F00F
E007
E007
E007
E007
7007
700E
3C1E
3FFC
1FF8
07E0
ENDCHAR
STARTCHAR seven
ENCODING 55
SWIDTH 556 0
DWIDTH 18 0
BBX 15 23 2 0
BITMAP
FFFE
FFFE
FFFE
000C
0018
0038
0070
00E0
00E0
01C0
01C0
0380
0380
0700
0700
0E00
0E00
0E00
0E00
1C00
1C00
1C00
1C00
ENDCHAR
STARTCHAR eight
ENCODING 56
SWIDTH 556 0
DWIDTH 18 0
BBX 16 23 1 0
BITMAP
07E0
1FF8
3FFC
781C
700E
700E
700E
700E
381C
1FF8
0FF0
3FFC
781E
700E
E007
E007
E007
E007
F00F
781E
3FFC
1FF8
07E0
ENDCHAR
STARTCHAR nine
ENCODING 57
SWIDTH 556 0
DWIDTH 18 0
BBX 16 23 1 0
BITMAP
07E0
1FF0
3FFC
7C1C
700E
E006
E007
E007
E007
E007
F00F
781F
3FFF
1FF7
0FC7
0007
000E
E00E
F01E
783C
7FF8
3FF0
0FC0
ENDCHAR
STARTCHAR colon
ENCODING 58
SWIDTH 277 0
DWIDTH 9 0
BBX 3 17 3 0
BITMAP
E0
E0
E0
00
00
00
00
00
00
00
00
00
00
00
E0
E0
E0
ENDCHAR
STARTCHAR semicolon
ENCODING 59
SWIDTH 277 0
DWIDTH 9 0
BBX 3 22 3 -5
BITMAP
E0
E0
E0
00
00
00
00
00
00
00
00
00
00
00
E0
E0
E0
60
60
60
40
C0
ENDCHAR
STARTCHAR less
ENCODING 60
SWIDTH 583 0
DWIDTH 19 0
BBX 15 15 2 4
BITMAP
0002
001E
007E
03FC
0FE0
7F00
FC00
E000
FC00
7F00
0FE0
03FC
007E
001E
0002
ENDCHAR
STARTCHAR equal
ENCODING 61
SWIDTH 583 0
DWIDTH 19 0
BBX 15 10 2 7
BITMAP
FFFE
FFFE
FFFE
0000
0000
0000
0000
FFFE
FFFE
FFFE
ENDCHAR
STARTCHAR greater
ENCODING 62
SWIDTH 583 0
DWIDTH 19 0
BBX 15 15 2 4
BITMAP
8000
F000
FC00
7F80
0FE0
01FC
007E
000E
007E
01FC
0FE0
7F80
FC00
F000
8000
ENDCHAR
STARTCHAR question
ENCODING 63
SWIDTH 556 0
DWIDTH 18 0
BBX 16 23 1 0
BITMAP
07E0
1FF8
3FFC
7C3E
700F
E007
E007
0007
000F
001E
003C
0078
00F0
00E0
01E0
01C0
01C0
01C0
0000
0000
01C0
01C0
01C0
ENDCHAR
STARTCHAR at
ENCODING 64
SWIDTH 1015 0
DWIDTH 32 0
BBX 30 30 2 -7
BITMAP
001FF000
00FFFC00
01FFFF00
07F01F80
0F8007C0
1F0001E0
1E1F1CF0
3C3FBC70
387FF870
70F1F838
71E0F838
71C07838
E1C07038
E3807038
E3807038
E3807070
E380F070
E380E0E0
E3C1E1E0
F1E3E3C0
71FFFF80
70FEFF00
78787C00
3C00001C
1E000078
1F8000F0
07F007E0
03FFFFC0
00FFFF00
001FF800
ENDCHAR
STARTCHAR A
ENCODING 65
SWIDTH 666 0
DWIDTH 21 0
BBX 21 23 0 0
BITMAP
00F800
00F800
00F800
01DC00
01DC00
01DC00
038E00
038E00
070700
070700
070700
0E0380
0E0380
0FFF80
1FFFC0
1FFFC0
3800E0
3800E0
3800E0
700070
700070
700070
E00038
ENDCHAR
STARTCHAR B
ENCODING 66
SWIDTH 666 0
DWIDTH 21 0
BBX 17 23 3 0
BITMAP
FFF000
FFFC00
FFFE00
E01F00
E00700
E00700
E00700
E00700
E01E00
FFFC00
FFFC00
FFFE00
E00F00
E00780
E00380
E00380
E00380
E00380
E00780
E00F00
FFFF00
FFFE00
FFF800
ENDCHAR
STARTCHAR C
ENCODING 67
SWIDTH 722 0
DWIDTH 23 0
BBX 21 23 1 0
BITMAP
01FC00
07FF00
0FFFC0
1F03C0
3C01E0
7800F0
700070
F00000
E00000
E00000
E00000
E00000
E00000
E00000
E00000
700038
700078
780070
3C00F0
1F03E0
0FFFC0
07FF80
01FE00
ENDCHAR
STARTCHAR D
ENCODING 68
SWIDTH 722 0
DWIDTH 23 0
BBX 19 23 3 0
BITMAP
FFF800
FFFE00
FFFF00
E00F80
E00380
E003C0
E001C0
E001E0
E000E0
E000E0
E000E0
E000E0
E000E0
E000E0
E000E0
E001E0
E001C0
E003C0
E00380
E00F80
FFFF00
FFFE00
FFF000
ENDCHAR
STARTCHAR E
ENCODING 69
SWIDTH 666 0
DWIDTH 21 0
BBX 16 23 3 0
BITMAP
FFFE
FFFE
FFFE
E000
E000
E000
E000
E000
E000
FFFC
FFFC
FFFC
E000
E000
E000
E000
E000
E000
E000
E000
FFFF
FFFF
FFFF
ENDCHAR
STARTCHAR F
ENCODING 70
SWIDTH 610 0
DWIDTH 20 0
BBX 16 23 3 0
BITMAP
FFFF
FFFF
FFFF
E000
E000
E000
E000
E000
E000
E000
FFFC
FFFC
FFFC
E000
E000
E000
E000
E000
E000
E000
E000
E000
E000
ENDCHAR
STARTCHAR G
ENCODING 71
SWIDTH 777 0
DWIDTH 25 0
BBX 22 23 1 0
BITMAP
00FF00
07FFC0
0FFFE0
1F01F0
3C0078
780038
70003C
700000
E00000
E00000
E00000
E00FFC
E00FFC
E00FFC
E0001C
70001C
70001C
78001C
3C003C
1F81FC
0FFFF0
03FFE0
00FF00
ENDCHAR
STARTCHAR H
ENCODING 72
SWIDTH 722 0
DWIDTH 23 0
BBX 17 23 3 0
BITMAP
E00380
E00380
E00380
E00380
E00380
E00380
E00380
E00380
E00380
FFFF80
FFFF80
FFFF80
E00380
E00380
E00380
E00380
E00380
E00380
E00380
E00380
E00380
E00380
E00380
ENDCHAR
STARTCHAR I
ENCODING 73
SWIDTH 277 0
DWIDTH 9 0
BBX 3 23 3 0
BITMAP
E0
E0
E0
E0
E0
E0
E0
E0
E0
E0
E0
E0
E0
E0
E0
E0
E0
E0
E0
E0
E0
E0
E0
ENDCHAR
STARTCHAR J
ENCODING 74
SWIDTH 500 0
DWIDTH 16 0
BBX 12 23 1 0
BITMAP
0070
0070
0070
0070
0070
0070
0070
0070
0070
0070
0070
0070
0070
0070
0070
0070
E070
E070
E070
F0E0
7FE0
3FC0
1F80
ENDCHAR
STARTCHAR K
ENCODING 75
SWIDTH 666 0
DWIDTH 21 0
BBX 19 23 3 0
BITMAP
E003C0
E00780
E00F00
E01E00
E03C00
E07800
E0F000
E1E000
E3C000
E78000
EF8000
FFC000
FDE000
F8F000
F0F000
E07800
E03C00
E01E00
E00E00
E00700
E00780
E003C0
E001E0
ENDCHAR
STARTCHAR L
ENCODING 76
SWIDTH 556 0
DWIDTH 18 0
BBX 14 23 3 0
BITMAP
E000
E000
E000
E000
E000
E000
E000
E000
E000
E000
E000
E000
E000
E000
E000
E000
E000
E000
E000
E000
FFFC
FFFC
FFFC
ENDCHAR
STARTCHAR M
ENCODING 77
SWIDTH 833 0
DWIDTH 27 0
BBX 21 23 3 0
BITMAP
F800F8
F800F8
FC01F8
FC01F8
FC01F8
EE03B8
EE03B8
EE03B8
E60338
E70738
E70738
E70738
E38E38
E38E38
E38E38
E18C38
E1DC38
E1DC38
E1DC38
E0D838
E0F838
E0F838
E07038
ENDCHAR
STARTCHAR N
ENCODING 78
SWIDTH 722 0
DWIDTH 23 0
BBX 17 23 3 0
BITMAP
E00380
F00380
F80380
F80380
FC0380
FC0380
EE0380
E70380
E70380
E38380
E38380
E1C380
E0E380
E0E380
E07380
E07380
E03B80
E01F80
E01F80
E00F80
E00F80
E00780
E00380
ENDCHAR
STARTCHAR O
ENCODING 79
SWIDTH 777 0
DWIDTH 25 0
BBX 23 23 1 0
BITMAP
00FE00
07FFC0
0FFFE0
1F01F0
3C0078
78003C
70001C
70001C
E0000E
E0000E
E0000E
E0000E
E0000E
E0000E
E0000E
70001C
70001C
78003C
3C0078
1F01F0
0FFFE0
07FFC0
00FE00
ENDCHAR
STARTCHAR P
ENCODING 80
SWIDTH 666 0
DWIDTH 21 0
BBX 17 23 3 0
BITMAP
FFF800
FFFE00
FFFF00
E00F00
E00780
E00380
E00380
E00380
E00380
E00780
E00F00
FFFF00
FFFE00
FFF800
E00000
E00000
E00000
E00000
E00000
E00000
E00000
E00000
E00000
ENDCHAR
STARTCHAR Q
ENCODING 81
SWIDTH 777 0
DWIDTH 25 0
BBX 23 24 1 -1
BITMAP
00FC00
07FF80
0FFFC0
1F03E0
3C00F0
780078
700038
700038
E0001C
E0001C
E0001C
E0001C
E0001C
E0001C
E0001C
700038
700838
781E70
3C0FF0
1F03E0
0FFFF0
07FFF8
00FE3E
00001C
ENDCHAR
STARTCHAR R
ENCODING 82
SWIDTH 722 0
DWIDTH 23 0
BBX 18 23 3 0
BITMAP
FFF800
FFFE00
FFFF00
E00F00
E00780
E00380
E00380
E00380
E00780
E00F00
FFFF00
FFFE00
FFF800
E0F000
E07800
E03C00
E01C00
E01E00
E00F00
E00700
E00780
E00380
E003C0
ENDCHAR
STARTCHAR S
ENCODING 83
SWIDTH 666 0
DWIDTH 21 0
BBX 18 23 1 0
BITMAP
07F000
1FFC00
3FFE00
3C0F00
780780
700380
700380
700000
380000
3F8000
1FF800
07FE00
007F00
000F80
0003C0
E001C0
E001C0
F001C0
7003C0
7C0F80
3FFF00
1FFE00
03F800
ENDCHAR
STARTCHAR T
ENCODING 84
SWIDTH 610 0
DWIDTH 19 0
BBX 19 23 0 0
BITMAP
FFFFE0
FFFFE0
FFFFE0
00E000
00E000
00E000
00E000
00E000
00E000
00E000
00E000
00E000
00E000
00E000
00E000
00E000
00E000
00E000
00E000
00E000
00E000
00E000
00E000
ENDCHAR
STARTCHAR U
ENCODING 85
SWIDTH 722 0
DWIDTH 23 0
BBX 17 23 3 0
BITMAP
E00380
E00380
E00380
E00380
E00380
E00380
E00380
E00380
E00380
E00380
E00380
E00380
E00380
E00380
E00380
E00380
E00380
F00780
700700
7C1F00
3FFE00
1FFC00
07F000
ENDCHAR
STARTCHAR V
ENCODING 86
SWIDTH 666 0
DWIDTH 21 0
BBX 21 23 0 0
BITMAP
E00038
F00078
700070
700070
3800E0
3800E0
3800E0
1C01C0
1C01C0
1E03C0
0E0380
0E0380
070700
070700
070700
038E00
038E00
03DE00
01DC00
01DC00
01FC00
00F800
00F800
ENDCHAR
STARTCHAR W
ENCODING 87
SWIDTH 943 0
DWIDTH 32 0
BBX 31 23 0 0
BITMAP
E007C00E
E007C00E
7007C01C
700EE01C
700EE01C
700EE01C
701C703C
381C7038
381C7038
381C7038
38383838
1C383870
1C383870
1C701C70
1C701C70
0E701CF0
0EE00EE0
0EE00EE0
0EE00EE0
0EE00EE0
07C007C0
07C007C0
07C007C0
ENDCHAR
STARTCHAR X
ENCODING 88
SWIDTH 666 0
DWIDTH 21 0
BBX 21 23 0 0
BITMAP
7800F0
3C01E0
1C01C0
0E0380
0F0780
078F00
038E00
01DC00
01DC00
00F800
007000
00F800
00F800
01DC00
03DE00
038E00
070700
0F0780
1E03C0
1C01C0
3800E0
7800F0
F00078
ENDCHAR
STARTCHAR Y
ENCODING 89
SWIDTH 666 0
DWIDTH 21 0
BBX 21 23 0 0
BITMAP
E00078
7000F0
3800E0
3C01E0
1C03C0
0E0380
0F0780
078F00
038E00
03DE00
01DC00
00F800
00F800
007000
007000
007000
007000
007000
007000
007000
007000
007000
007000
ENDCHAR
STARTCHAR Z
ENCODING 90
SWIDTH 610 0
DWIDTH 20 0
BBX 19 23 0 0
BITMAP
7FFFC0
7FFFC0
7FFFC0
0003C0
000780
000F00
001E00
001C00
003800
007000
00F000
01E000
03C000
078000
070000
0E0000
1E0000
3C0000
780000
F00000
FFFFE0
FFFFE0
FFFFE0
ENDCHAR
STARTCHAR bracketleft
ENCODING 91
SWIDTH 277 0
DWIDTH 9 0
BBX 6 29 2 -6
BITMAP
FC
FC
FC
E0
E0
E0
E0
E0
E0
E0
E0
E0
E0
E0
E0
E0
E0
E0
E0
E0
E0
E0
E0
E0
E0
E0
FC
FC
FC
ENDCHAR
STARTCHAR backslash
ENCODING 92
SWIDTH 277 0
DWIDTH 9 0
BBX 9 23 1 0
BITMAP
C000
C000
6000
6000
6000
3000
3000
3000
1800
1800
1800
1C00
0C00
0C00
0C00
0600
0600
0600
0300
0300
0300
0380
0180
ENDCHAR
STARTCHAR bracketright
ENCODING 93
SWIDTH 277 0
DWIDTH 9 0
BBX 6 29 1 -6
BITMAP
FC
FC
FC
1C
1C
1C
1C
1C
1C
1C
1C
1C
1C
1C
1C
1C
1C
1C
1C
1C
1C
1C
1C
1C
1C
1C
FC
FC
FC
ENDCHAR
STARTCHAR asciicircum
ENCODING 94
SWIDTH 469 0
DWIDTH 14 0
BBX 12 12 1 11
BITMAP
0600
0F00
0F00
0F00
1F80
1980
39C0
39C0
70E0
70E0
70E0
E070
ENDCHAR
STARTCHAR underscore
ENCODING 95
SWIDTH 556 0
DWIDTH 18 0
BBX 19 3 -1 -6
BITMAP
FFFFE0
FFFFE0
FFFFE0
ENDCHAR
STARTCHAR grave
ENCODING 96
SWIDTH 333 0
DWIDTH 11 0
BBX 6 4 1 19
BITMAP
F0
78
38
1C
ENDCHAR
STARTCHAR a
ENCODING 97
SWIDTH 556 0
DWIDTH 17 0
BBX 15 17 1 0
BITMAP
0FE0
3FF8
7FF8
F03C
E01C
001C
007C
0FFC
3FFC
7F9C
F01C
E01C
E03C
F0FC
7FFC
7FDC
1F0E
ENDCHAR
STARTCHAR b
ENCODING 98
SWIDTH 556 0
DWIDTH 17 0
BBX 14 23 2 0
BITMAP
E000
E000
E000
E000
E000
E000
E7C0
EFE0
FFF0
F878
F038
F01C
E01C
E01C
E01C
E01C
E01C
E03C
F038
F878
FFF0
EFE0
E7C0
ENDCHAR
STARTCHAR c
ENCODING 99
SWIDTH 500 0
DWIDTH 16 0
BBX 14 17 1 0
BITMAP
0780
1FE0
3FF0
7878
7038
E01C
E000
E000
E000
E000
E000
E01C
703C
7878
3FF8
1FF0
0FC0
ENDCHAR
STARTCHAR d
ENCODING 100
SWIDTH 556 0
DWIDTH 17 0
BBX 14 23 1 0
BITMAP
001C
001C
001C
001C
001C
001C
0F9C
1FDC
3FFC
787C
703C
E03C
E01C
E01C
E01C
E01C
E01C
F01C
703C
787C
3FFC
1FDC
0F9C
ENDCHAR
STARTCHAR e
ENCODING 101
SWIDTH 556 0
DWIDTH 17 0
BBX 15 17 1 0
BITMAP
07C0
1FF0
3FF8
783C
701C
E00E
E00E
FFFE
FFFE
E000
E000
F000
700E
7C3C
3FFC
1FF8
07E0
ENDCHAR
STARTCHAR f
ENCODING 102
SWIDTH 277 0
DWIDTH 10 0
BBX 9 23 1 0
BITMAP
0F80
1F80
3F80
3800
3800
3800
FF00
FF00
FF00
3800
3800
3800
3800
3800
3800
3800
3800
3800
3800
3800
3800
3800
3800
ENDCHAR
STARTCHAR g
ENCODING 103
SWIDTH 556 0
DWIDTH 17 0
BBX 14 23 1 -6
BITMAP
0F9C
1FFC
3FFC
787C
703C
E03C
E01C
E01C
E01C
E01C
E01C
E01C
703C
787C
3FFC
1FFC
0F9C
001C
E03C
F078
7FF8
7FF0
1FC0
ENDCHAR
STARTCHAR h
ENCODING 104
SWIDTH 556 0
DWIDTH 18 0
BBX 14 23 2 0
BITMAP
E000
E000
E000
E000
E000
E000
E3E0
EFF0
FFF8
F87C
F03C
E01C
E01C
E01C
E01C
E01C
E01C
E01C
E01C
E01C
E01C
E01C
E01C
ENDCHAR
STARTCHAR i
ENCODING 105
SWIDTH 222 0
DWIDTH 7 0
BBX 3 23 2 0
BITMAP
E0
E0
E0
00
00
00
E0
E0
E0
E0
E0
E0
E0
E0
E0
E0
E0
E0
E0
E0
E0
E0
E0
ENDCHAR
STARTCHAR j
ENCODING 106
SWIDTH 222 0
DWIDTH 7 0
BBX 6 29 -1 -6
BITMAP
1C
1C
1C
00
00
00
1C
1C
1C
1C
1C
1C
1C
1C
1C
1C
1C
1C
1C
1C
1C
1C
1C
1C
1C
1C
FC
F8
F0
ENDCHAR
STARTCHAR k
ENCODING 107
SWIDTH 500 0
DWIDTH 16 0
BBX 14 23 2 0
BITMAP
E000
E000
E000
E000
E000
E000
E03C
E078
E0F0
E1E0
E3C0
E780
EF00
FF00
FF80
F380
E3C0
E1E0
E0E0
E0F0
E070
E038
E03C
ENDCHAR
STARTCHAR l
ENCODING 108
SWIDTH 222 0
DWIDTH 7 0
BBX 3 23 2 0
BITMAP
E0
E0
E0
E0
E0
E0
E0
E0
E0
E0
E0
E0
E0
E0
E0
E0
E0
E0
E0
E0
E0
E0
E0
ENDCHAR
STARTCHAR m
ENCODING 109
SWIDTH 833 0
DWIDTH 27 0
BBX 23 17 2 0
BITMAP
E3C0F0
EFF3FC
FFF7FC
F87E1E
F03C0E
E0380E
E0380E
E0380E
E0380E
E0380E
E0380E
E0380E
E0380E
E0380E
E0380E
E0380E
E0380E
ENDCHAR
STARTCHAR n
ENCODING 110
SWIDTH 556 0
DWIDTH 18 0
BBX 14 17 2 0
BITMAP
E3E0
EFF8
FFF8
F83C
F01C
E01C
E01C
E01C
E01C
E01C
E01C
E01C
E01C
E01C
E01C
E01C
E01C
ENDCHAR
STARTCHAR o
ENCODING 111
SWIDTH 556 0
DWIDTH 17 0
BBX 15 17 1 0
BITMAP
07C0
1FF0
3FF8
783C
701C
F01E
E00E
E00E
E00E
E00E
E00E
F01E
701C
783C
3FF8
1FF0
07C0
ENDCHAR
STARTCHAR p
ENCODING 112
SWIDTH 556 0
DWIDTH 17 0
BBX 14 23 2 -6
BITMAP
E7C0
EFE0
FFF0
F878
F038
F03C
E01C
E01C
E01C
E01C
E01C
E03C
F038
F878
FFF0
EFE0
E7C0
E000
E000
E000
E000
E000
E000
ENDCHAR
STARTCHAR q
ENCODING 113
SWIDTH 556 0
DWIDTH 17 0
BBX 14 23 1 -6
BITMAP
0F9C
3FDC
3FFC
787C
703C
E03C
E01C
E01C
E01C
E01C
E01C
F01C
703C
787C
3FFC
1FDC
0F9C
001C
001C
001C
001C
001C
001C
ENDCHAR
STARTCHAR r
ENCODING 114
SWIDTH 333 0
DWIDTH 11 0
BBX 9 17 2 0
BITMAP
E780
EF80
FF00
F800
F000
E000
E000
E000
E000
E000
E000
E000
E000
E000
E000
E000
E000
ENDCHAR
STARTCHAR s
ENCODING 115
SWIDTH 500 0
DWIDTH 16 0
BBX 14 17 1 0
BITMAP
1F80
3FE0
7FF0
F078
E038
F000
FE00
7FC0
3FF0
07F8
007C
E01C
F01C
783C
7FF8
3FF0
0FC0
ENDCHAR
STARTCHAR t
ENCODING 116
SWIDTH 277 0
DWIDTH 9 0
BBX 8 23 0 0
BITMAP
08
18
38
38
38
38
FF
FF
FF
38
38
38
38
38
38
38
38
38
38
38
3F
3F
1F
ENDCHAR
STARTCHAR u
ENCODING 117
SWIDTH 556 0
DWIDTH 18 0
BBX 14 17 2 0
BITMAP
E01C
E01C
E01C
E01C
E01C
E01C
E01C
E01C
E01C
E01C
E01C
E01C
F03C
F87C
7FDC
7FDC
1F1C
ENDCHAR
STARTCHAR v
ENCODING 118
SWIDTH 500 0
DWIDTH 15 0
BBX 15 17 0 0
BITMAP
E00E
701C
701C
701C
3838
3838
3838
1C70
1C70
1C70
0EE0
0EE0
06C0
06C0
07C0
0380
0380
ENDCHAR
STARTCHAR w
ENCODING 119
SWIDTH 722 0
DWIDTH 23 0
BBX 23 17 0 0
BITMAP
E0380E
E0380E
E07C0E
707C1C
706C1C
706C1C
38EE38
38C638
38C638
18C670
1DC770
1D8370
0D8360
0F83E0
0F83E0
0701C0
0701C0
ENDCHAR
STARTCHAR x
ENCODING 120
SWIDTH 500 0
DWIDTH 14 0
BBX 14 17 0 0
BITMAP
E01C
7038
3870
3870
1CE0
0FC0
0FC0
0780
0780
0780
0FC0
0FC0
1CE0
3870
3870
7038
E01C
ENDCHAR
STARTCHAR y
ENCODING 121
SWIDTH 500 0
DWIDTH 15 0
BBX 15 23 0 -6
BITMAP
E00E
701E
701C
701C
3838
3838
3838
1C70
1C70
0C70
0EE0
0EE0
06E0
07C0
07C0
03C0
0380
0380
0700
0700
3F00
3E00
3C00
ENDCHAR
STARTCHAR z
ENCODING 122
SWIDTH 500 0
DWIDTH 15 0
BBX 14 17 0 0
BITMAP
7FFC
7FFC
7FFC
003C
0078
00F0
01E0
03C0
0780
0F00
1E00
3C00
7800
F000
FFFC
FFFC
FFFC
ENDCHAR
STARTCHAR braceleft
ENCODING 123
SWIDTH 333 0
DWIDTH 11 0
BBX 9 29 1 -6
BITMAP
0780
0F80
1F80
1E00
1C00
1C00
1C00
1C00
1C00
1C00
1C00
3C00
3800
F000
C000
F000
3800
3C00
1C00
1C00
1C00
1C00
1C00
1C00
1C00
1C00
1F80
0F80
0780
ENDCHAR
STARTCHAR bar
ENCODING 124
SWIDTH 259 0
DWIDTH 8 0
BBX 2 30 3 -7
BITMAP
C0
C0
C0
C0
C0
C0
C0
C0
C0
C0
C0
C0
C0
C0
C0
C0
C0
C0
C0
C0
C0
C0
C0
C0
C0
C0
C0
C0
C0
C0
ENDCHAR
STARTCHAR braceright
ENCODING 125
SWIDTH 333 0
DWIDTH 11 0
BBX 9 29 1 -6
BITMAP
F000
F800
FC00
3C00
1C00
1C00
1C00
1C00
1C00
1C00
1C00
1C00
0E00
0780
0180
0780
0E00
1E00
1C00
1C00
1C00
1C00
1C00
1C00
1C00
3C00
FC00
F800
F000
ENDCHAR
STARTCHAR asciitilde
ENCODING 126
SWIDTH 583 0
DWIDTH 19 0
BBX 16 6 1 8
BITMAP
3E00
7F81
FFC3
C3FF
80FE
007C
ENDCHAR
STARTCHAR space.dup1
ENCODING 160
SWIDTH 277 0
DWIDTH 9 0
BBX 1 1 0 0
BITMAP
00
ENDCHAR
STARTCHAR exclamdown
ENCODING 161
SWIDTH 333 0
DWIDTH 11 0
BBX 3 23 4 -6
BITMAP
E0
E0
E0
00
00
40
40
40
40
40
40
E0
E0
E0
E0
E0
E0
E0
E0
E0
E0
E0
E0
ENDCHAR
STARTCHAR cent
ENCODING 162
SWIDTH 556 0
DWIDTH 18 0
BBX 15 29 1 -6
BITMAP
0018
0030
0030
0030
0030
0060
07E0
1FF0
3FF8
78FC
70DC
F1CE
E180
E180
E180
E300
E300
F30E
761E
7E3C
3FF8
1FF0
0FE0
0C00
0C00
1800
1800
1800
3800
ENDCHAR
STARTCHAR sterling
ENCODING 163
SWIDTH 556 0
DWIDTH 18 0
BBX 17 23 0 0
BITMAP
03F000
0FFC00
1FFE00
1E1E00
3C0F00
380700
380000
380000
380000
1C0000
FFE000
FFE000
FFE000
0E0000
0E0000
0E0000
0C0000
1C0000
380000
7FC100
FFFF80
7FFF80
603F00
ENDCHAR
STARTCHAR currency
ENCODING 164
SWIDTH 556 0
DWIDTH 18 0
BBX 15 15 1 3
BITMAP
4004
E7CE
7FFC
3FF8
3C78
783C
701C
701C
701C
783C
3C78
3FF8
7FFC
E7CE
4004
ENDCHAR
STARTCHAR yen
ENCODING 165
SWIDTH 556 0
DWIDTH 18 0
BBX 17 23 0 0
BITMAP
E00380
700700
700700
380E00
380E00
1C1C00
1C1C00
0E3800
0E7800
077000
07F000
7FFF00
7FFF00
7FFF00
01C000
01C000
7FFF00
7FFF00
7FFF00
01C000
01C000
01C000
01C000
ENDCHAR
STARTCHAR brokenbar
ENCODING 166
SWIDTH 259 0
DWIDTH 8 0
BBX 2 30 3 -7
BITMAP
C0
C0
C0
C0
C0
C0
C0
C0
C0
C0
C0
C0
C0
00
00
00
00
00
C0
C0
C0
C0
C0
C0
C0
C0
C0
C0
C0
C0
ENDCHAR
STARTCHAR section
ENCODING 167
SWIDTH 556 0
DWIDTH 18 0
BBX 15 30 1 -7
BITMAP
0FC0
3FF0
3FF8
783C
701C
7000
3800
1E00
3F80
77C0
E1F0
E0F8
E03C
E01E
700E
780E
3E0E
0F1C
07F8
01E0
00F0
0078
003C
701C
701C
381C
3C3C
1FF8
1FF0
07C0
ENDCHAR
STARTCHAR dieresis
ENCODING 168
SWIDTH 333 0
DWIDTH 11 0
BBX 9 3 1 20
BITMAP
E380
E380
E380
ENDCHAR
STARTCHAR copyright
ENCODING 169
SWIDTH 736 0
DWIDTH 24 0
BBX 24 23 0 0
BITMAP
007E00
03FFC0
0F81F0
1E0078
38001C
303E0C
60FF8E
61C186
E180C7
C30003
C30003
C30003
C30003
C30003
E180C7
61C386
60FF0E
303E0C
38001C
1E0078
0F81F0
03FFC0
007E00
ENDCHAR
STARTCHAR ordfeminine
ENCODING 170
SWIDTH 370 0
DWIDTH 12 0
BBX 10 12 1 11
BITMAP
3E00
7F00
E380
0380
0380
3F80
7B80
E380
E380
E780
FF80
79C0
ENDCHAR
STARTCHAR guillemotleft
ENCODING 171
SWIDTH 556 0
DWIDTH 18 0
BBX 14 14 2 1
BITMAP
071C
0E38
1C70
3CF0
38E0
71C0
E380
E380
71C0
38E0
3CF0
1C70
0E38
071C
ENDCHAR
STARTCHAR logicalnot
ENCODING 172
SWIDTH 583 0
DWIDTH 19 0
BBX 15 9 2 7
BITMAP
FFFE
FFFE
FFFE
000E
000E
000E
000E
000E
000E
ENDCHAR
STARTCHAR hyphen.dup2
ENCODING 173
SWIDTH 333 0
DWIDTH 11 0
BBX 9 3 1 7
BITMAP
FF80
FF80
FF80
ENDCHAR
STARTCHAR registered
ENCODING 174
SWIDTH 736 0
DWIDTH 24 0
BBX 24 23 0 0
BITMAP
007E00
03FFC0
0F81F0
1E0078
38001C
31FE0C
61FF0E
618386
E18187
C18183
C18383
C1FF03
C1FE03
C18C03
E18607
618706
61838E
3181CC
38001C
1E0078
0F81F0
03FFC0
007E00
ENDCHAR
STARTCHAR macron
ENCODING 175
SWIDTH 552 0
DWIDTH 18 0
BBX 19 3 -1 24
BITMAP
FFFFE0
FFFFE0
FFFFE0
ENDCHAR
STARTCHAR degree
ENCODING 176
SWIDTH 399 0
DWIDTH 13 0
BBX 9 9 2 14
BITMAP
3E00
7F00
E380
C180
C180
C180
E380
7F00
3E00
ENDCHAR
STARTCHAR plusminus
ENCODING 177
SWIDTH 548 0
DWIDTH 18 0
BBX 15 19 1 0
BITMAP
0380
0380
0380
0380
0380
0380
FFFE
FFFE
FFFE
0380
0380
0380
0380
0380
0380
0000
FFFE
FFFE
FFFE
ENDCHAR
STARTCHAR uni00B2
ENCODING 178
SWIDTH 333 0
DWIDTH 11 0
BBX 10 12 0 11
BITMAP
3F00
7F80
E1C0
01C0
01C0
0380
0700
1E00
3800
7000
7FC0
FFC0
ENDCHAR
STARTCHAR uni00B3
ENCODING 179
SWIDTH 333 0
DWIDTH 11 0
BBX 10 12 0 11
BITMAP
3F00
7FC0
E1C0
01C0
0F00
0F80
01C0
01C0
01C0
E3C0
7F80
3F00
ENDCHAR
STARTCHAR acute
ENCODING 180
SWIDTH 333 0
DWIDTH 11 0
BBX 6 4 4 19
BITMAP
3C
78
70
E0
ENDCHAR
STARTCHAR mu
ENCODING 181
SWIDTH 576 0
DWIDTH 18 0
BBX 14 23 2 -6
BITMAP
E01C
E01C
E01C
E01C
E01C
E01C
E01C
E01C
E01C
E01C
E01C
E01C
F03C
F87C
FFFC
EFDC
E79C
E000
E000
E000
E000
E000
E000
ENDCHAR
STARTCHAR paragraph
ENCODING 182
SWIDTH 537 0
DWIDTH 17 0
BBX 17 29 0 -6
BITMAP
0FFF80
3FFF80
7FFF80
7F8E00
FF8E00
FF8E00
FF8E00
FF8E00
FF8E00
7F8E00
7F8E00
3F8E00
0F8E00
038E00
038E00
038E00
038E00
038E00
038E00
038E00
038E00
038E00
038E00
038E00
038E00
038E00
038E00
038E00
038E00
ENDCHAR
STARTCHAR periodcentered
ENCODING 183
SWIDTH 333 0
DWIDTH 11 0
BBX 3 3 4 10
BITMAP
E0
E0
E0
ENDCHAR
STARTCHAR cedilla
ENCODING 184
SWIDTH 333 0
DWIDTH 11 0
BBX 6 7 2 -7
BITMAP
30
30
78
0C
0C
FC
F0
ENDCHAR
STARTCHAR uni00B9
ENCODING 185
SWIDTH 333 0
DWIDTH 11 0
BBX 7 12 2 11
BITMAP
0E
1E
7E
FE
EE
8E
0E
0E
0E
0E
0E
0E
ENDCHAR
STARTCHAR ordmasculine
ENCODING 186
SWIDTH 365 0
DWIDTH 12 0
BBX 10 12 1 11
BITMAP
1E00
7F00
7380
E1C0
E1C0
E1C0
E1C0
E1C0
E1C0
7380
7F80
1E00
ENDCHAR
STARTCHAR guillemotright
ENCODING 187
SWIDTH 556 0
DWIDTH 18 0
BBX 14 14 2 1
BITMAP
E380
71C0
38E0
3CF0
1C70
0E38
071C
071C
0E38
1C70
3CF0
38E0
71C0
E380
ENDCHAR
STARTCHAR onequarter
ENCODING 188
SWIDTH 833 0
DWIDTH 27 0
BBX 26 23 1 0
BITMAP
0E001E00
1E001C00
7E003800
FE007000
EE00E000
8E00E000
0E01C000
0E038000
0E070000
0E070000
0E0E0000
0E1C0700
00380F00
00380F00
00701F00
00E03700
01C03700
01C06700
0380C700
0700FFC0
0E00FFC0
0E000700
1C000700
ENDCHAR
STARTCHAR onehalf
ENCODING 189
SWIDTH 833 0
DWIDTH 27 0
BBX 25 23 1 0
BITMAP
0E000E00
1E001C00
7E003800
FE007000
EE007000
8E00E000
0E01C000
0E038000
0E038000
0E070000
0E0E0000
0E1C3E00
001C7F00
0038E380
0070C380
00E00380
00E00700
01C00E00
03801C00
07003800
0F007000
0E00FF80
1C00FF80
ENDCHAR
STARTCHAR threequarters
ENCODING 190
SWIDTH 833 0
DWIDTH 27 0
BBX 26 23 1 0
BITMAP
3F000E00
7FC01C00
E1C03C00
01C03800
0F007000
0F80E000
01C1E000
01C1C000
E1C38000
F3C70000
7F8E0000
3F0E0700
001C0F00
00380F00
00701F00
00703F00
00E03700
01C07700
0380E700
0380FFC0
0700FFC0
0E000700
1C000700
ENDCHAR
STARTCHAR questiondown
ENCODING 191
SWIDTH 610 0
DWIDTH 20 0
BBX 16 23 2 -6
BITMAP
0380
0380
0380
0000
0000
0380
0380
0380
0780
0700
0F00
1E00
3C00
7000
F000
E000
E007
E00F
F00E
783E
7FFC
1FF8
07E0
ENDCHAR
STARTCHAR Agrave
ENCODING 192
SWIDTH 666 0
DWIDTH 21 0
BBX 21 29 0 0
BITMAP
01E000
00F000
007000
003800
000000
000000
00F800
00F800
00F800
01DC00
01DC00
01DC00
038E00
038E00
070700
070700
070700
0E0380
0E0380
0FFF80
1FFFC0
1FFFC0
3800E0
3800E0
3800E0
700070
700070
700070
E00038
ENDCHAR
STARTCHAR Aacute
ENCODING 193
SWIDTH 666 0
DWIDTH 21 0
BBX 21 29 0 0
BITMAP
001E00
003C00
003800
007000
000000
000000
00F800
00F800
00F800
01DC00
01DC00
01DC00
038E00
038E00
070700
070700
070700
0E0380
0E0380
0FFF80
1FFFC0
1FFFC0
3800E0
3800E0
3800E0
700070
700070
700070
E00038
ENDCHAR
STARTCHAR Acircumflex
ENCODING 194
SWIDTH 666 0
DWIDTH 21 0
BBX 21 29 0 0
BITMAP
007800
00FC00
01CE00
038700
000000
000000
00F800
00F800
00F800
01DC00
01DC00
01DC00
038E00
038E00
070700
070700
070700
0E0380
0E0380
0FFF80
1FFFC0
1FFFC0
3800E0
3800E0
3800E0
700070
700070
700070
E00038
ENDCHAR
STARTCHAR Atilde
ENCODING 195
SWIDTH 666 0
DWIDTH 21 0
BBX 21 29 0 0
BITMAP
01E600
01FE00
03FE00
033C00
000000
000000
00F800
00F800
00F800
01DC00
01DC00
01DC00
038E00
038E00
070700
070700
070700
0E0380
0E0380
0FFF80
1FFFC0
1FFFC0
3800E0
3800E0
3800E0
700070
700070
700070
E00038
ENDCHAR
STARTCHAR Adieresis
ENCODING 196
SWIDTH 666 0
DWIDTH 21 0
BBX 21 28 0 0
BITMAP
038E00
038E00
038E00
000000
000000
00F800
00F800
00F800
01DC00
01DC00
01DC00
038E00
038E00
070700
070700
070700
0E0380
0E0380
0FFF80
1FFFC0
1FFFC0
3800E0
3800E0
3800E0
700070
700070
700070
E00038
ENDCHAR
STARTCHAR Aring
ENCODING 197
SWIDTH 666 0
DWIDTH 21 0
BBX 21 27 0 0
BITMAP
007000
008800
008800
008800
00F800
00F800
00F800
01DC00
01DC00
01DC00
038E00
038E00
070700
070700
070700
0E0380
0E0380
0FFF80
1FFFC0
1FFFC0
3800E0
3800E0
3800E0
700070
700070
700070
E00038
ENDCHAR
STARTCHAR AE
ENCODING 198
SWIDTH 1000 0
DWIDTH 32 0
BBX 30 23 0 0
BITMAP
003FFFF8
003FFFF8
007FFFF8
0071C000
0071C000
00E1C000
00E1C000
01C1C000
01C1C000
0381FFF0
0381FFF0
0701FFF0
0701C000
0E01C000
0FFFC000
1FFFC000
1FFFC000
3801C000
3801C000
7001C000
7001FFFC
E001FFFC
E001FFFC
ENDCHAR
STARTCHAR Ccedilla
ENCODING 199
SWIDTH 722 0
DWIDTH 23 0
BBX 21 30 1 -7
BITMAP
01FC00
07FF00
0FFFC0
1F03C0
3C01E0
7800F0
700070
F00000
E00000
E00000
E00000
E00000
E00000
E00000
E00000
700038
700078
780070
3C00F0
1F03E0
0FFFC0
07FF80
01FE00
006000
006000
00F000
001800
001800
01F800
01E000
ENDCHAR
STARTCHAR Egrave
ENCODING 200
SWIDTH 666 0
DWIDTH 21 0
BBX 16 29 3 0
BITMAP
0F00
0780
0380
01C0
0000
0000
FFFE
FFFE
FFFE
E000
E000
E000
E000
E000
E000
FFFC
FFFC
FFFC
E000
E000
E000
E000
E000
E000
E000
E000
FFFF
FFFF
FFFF
ENDCHAR
STARTCHAR Eacute
ENCODING 201
SWIDTH 666 0
DWIDTH 21 0
BBX 16 29 3 0
BITMAP
01E0
03C0
0380
0700
0000
0000
FFFE
FFFE
FFFE
E000
E000
E000
E000
E000
E000
FFFC
FFFC
FFFC
E000
E000
E000
E000
E000
E000
E000
E000
FFFF
FFFF
FFFF
ENDCHAR
STARTCHAR Ecircumflex
ENCODING 202
SWIDTH 666 0
DWIDTH 21 0
BBX 16 29 3 0
BITMAP
03C0
07E0
0E70
1C38
0000
0000
FFFE
FFFE
FFFE
E000
E000
E000
E000
E000
E000
FFFC
FFFC
FFFC
E000
E000
E000
E000
E000
E000
E000
E000
FFFF
FFFF
FFFF
ENDCHAR
STARTCHAR Edieresis
ENCODING 203
SWIDTH 666 0
DWIDTH 21 0
BBX 16 28 3 0
BITMAP
1C70
1C70
1C70
0000
0000
FFFE
FFFE
FFFE
E000
E000
E000
E000
E000
E000
FFFC
FFFC
FFFC
E000
E000
E000
E000
E000
E000
E000
E000
FFFF
FFFF
FFFF
ENDCHAR
STARTCHAR Igrave
ENCODING 204
SWIDTH 277 0
DWIDTH 9 0
BBX 6 29 1 0
BITMAP
F0
78
38
1C
00
00
38
38
38
38
38
38
38
38
38
38
38
38
38
38
38
38
38
38
38
38
38
38
38
ENDCHAR
STARTCHAR Iacute
ENCODING 205
SWIDTH 277 0
DWIDTH 9 0
BBX 6 29 2 0
BITMAP
3C
78
70
E0
00
00
70
70
70
70
70
70
70
70
70
70
70
70
70
70
70
70
70
70
70
70
70
70
70
ENDCHAR
STARTCHAR Icircumflex
ENCODING 206
SWIDTH 277 0
DWIDTH 9 0
BBX 10 29 0 0
BITMAP
1E00
3F00
7380
E1C0
0000
0000
1C00
1C00
1C00
1C00
1C00
1C00
1C00
1C00
1C00
1C00
1C00
1C00
1C00
1C00
1C00
1C00
1C00
1C00
1C00
1C00
1C00
1C00
1C00
ENDCHAR
STARTCHAR Idieresis
ENCODING 207
SWIDTH 277 0
DWIDTH 9 0
BBX 9 28 0 0
BITMAP
E380
E380
E380
0000
0000
1C00
1C00
1C00
1C00
1C00
1C00
1C00
1C00
1C00
1C00
1C00
1C00
1C00
1C00
1C00
1C00
1C00
1C00
1C00
1C00
1C00
1C00
1C00
ENDCHAR
STARTCHAR Eth
ENCODING 208
SWIDTH 722 0
DWIDTH 23 0
BBX 21 23 0 0
BITMAP
1FFE00
1FFF80
1FFFC0
1C03E0
1C00F0
1C0070
1C0070
1C0038
1C0038
1C0038
FFF038
FFF038
FFF038
1C0038
1C0038
1C0078
1C0070
1C0070
1C00E0
1C03E0
1FFFC0
1FFF80
1FFE00
ENDCHAR
STARTCHAR Ntilde
ENCODING 209
SWIDTH 722 0
DWIDTH 23 0
BBX 17 29 3 0
BITMAP
079800
07F800
0FF800
0CF000
000000
000000
E00380
F00380
F80380
F80380
FC0380
FC0380
EE0380
E70380
E70380
E38380
E38380
E1C380
E0E380
E0E380
E07380
E07380
E03B80
E01F80
E01F80
E00F80
E00F80
E00780
E00380
ENDCHAR
STARTCHAR Ograve
ENCODING 210
SWIDTH 777 0
DWIDTH 25 0
BBX 23 29 1 0
BITMAP
00F000
007800
003800
001C00
000000
000000
00FE00
07FFC0
0FFFE0
1F01F0
3C0078
78003C
70001C
70001C
E0000E
E0000E
E0000E
E0000E
E0000E
E0000E
E0000E
70001C
70001C
78003C
3C0078
1F01F0
0FFFE0
07FFC0
00FE00
ENDCHAR
STARTCHAR Oacute
ENCODING 211
SWIDTH 777 0
DWIDTH 25 0
BBX 23 29 1 0
BITMAP
001E00
003C00
003800
007000
000000
000000
00FE00
07FFC0
0FFFE0
1F01F0
3C0078
78003C
70001C
70001C
E0000E
E0000E
E0000E
E0000E
E0000E
E0000E
E0000E
70001C
70001C
78003C
3C0078
1F01F0
0FFFE0
07FFC0
00FE00
ENDCHAR
STARTCHAR Ocircumflex
ENCODING 212
SWIDTH 777 0
DWIDTH 25 0
BBX 23 29 1 0
BITMAP
003E00
007E00
00E700
01C380
000000
000000
00FE00
07FFC0
0FFFE0
1F01F0
3C0078
78003C
70001C
70001C
E0000E
E0000E
E0000E
E0000E
E0000E
E0000E
E0000E
70001C
70001C
78003C
3C0078
1F01F0
0FFFE0
07FFC0
00FE00
ENDCHAR
STARTCHAR Otilde
ENCODING 213
SWIDTH 777 0
DWIDTH 25 0
BBX 23 29 1 0
BITMAP
00F300
00FF00
01FF00
019E00
000000
000000
00FE00
07FFC0
0FFFE0
1F01F0
3C0078
78003C
70001C
70001C
E0000E
E0000E
E0000E
E0000E
E0000E
E0000E
E0000E
70001C
70001C
78003C
3C0078
1F01F0
0FFFE0
07FFC0
00FE00
ENDCHAR
STARTCHAR Odieresis
ENCODING 214
SWIDTH 777 0
DWIDTH 25 0
BBX 23 28 1 0
BITMAP
01C700
01C700
01C700
000000
000000
00FE00
07FFC0
0FFFE0
1F01F0
3C0078
78003C
70001C
70001C
E0000E
E0000E
E0000E
E0000E
E0000E
E0000E
E0000E
70001C
70001C
78003C
3C0078
1F01F0
0FFFE0
07FFC0
00FE00
ENDCHAR
STARTCHAR multiply
ENCODING 215
SWIDTH 583 0
DWIDTH 19 0
BBX 12 13 3 4
BITMAP
4020
E070
F0F0
79E0
3FC0
1F80
0F00
1F80
3FC0
79E0
F0F0
E070
4020
ENDCHAR
STARTCHAR Oslash
ENCODING 216
SWIDTH 777 0
DWIDTH 25 0
BBX 23 24 1 -1
BITMAP
00FE06
07FF8E
0FFFFC
1F01F8
3C0078
7800F8
7001DC
70039C
E0070E
E00E0E
E01C0E
E0380E
E0780E
E0700E
E0E00E
71C01C
73801C
3F003C
3E0078
1F01F0
3FFFE0
77FFC0
E0FE00
400000
ENDCHAR
STARTCHAR Ugrave
ENCODING 217
SWIDTH 722 0
DWIDTH 23 0
BBX 17 29 3 0
BITMAP
078000
03C000
01C000
00E000
000000
000000
E00380
E00380
E00380
E00380
E00380
E00380
E00380
E00380
E00380
E00380
E00380
E00380
E00380
E00380
E00380
E00380
E00380
F00780
700700
7C1F00
3FFE00
1FFC00
07F000
ENDCHAR
STARTCHAR Uacute
ENCODING 218
SWIDTH 722 0
DWIDTH 23 0
BBX 17 29 3 0
BITMAP
00F000
01E000
01C000
038000
000000
000000
E00380
E00380
E00380
E00380
E00380
E00380
E00380
E00380
E00380
E00380
E00380
E00380
E00380
E00380
E00380
E00380
E00380
F00780
700700
7C1F00
3FFE00
1FFC00
07F000
ENDCHAR
STARTCHAR Ucircumflex
ENCODING 219
SWIDTH 722 0
DWIDTH 23 0
BBX 17 29 3 0
BITMAP
01E000
03F000
073800
0E1C00
000000
000000
E00380
E00380
E00380
E00380
E00380
E00380
E00380
E00380
E00380
E00380
E00380
E00380
E00380
E00380
E00380
E00380
E00380
F00780
700700
7C1F00
3FFE00
1FFC00
07F000
ENDCHAR
STARTCHAR Udieresis
ENCODING 220
SWIDTH 722 0
DWIDTH 23 0
BBX 17 28 3 0
BITMAP
0E3800
0E3800
0E3800
000000
000000
E00380
E00380
E00380
E00380
E00380
E00380
E00380
E00380
E00380
E00380
E00380
E00380
E00380
E00380
E00380
E00380
E00380
F00780
700700
7C1F00
3FFE00
1FFC00
07F000
ENDCHAR
STARTCHAR Yacute
ENCODING 221
SWIDTH 666 0
DWIDTH 21 0
BBX 21 29 0 0
BITMAP
001E00
003C00
003800
007000
000000
000000
E00078
7000F0
3800E0
3C01E0
1C03C0
0E0380
0F0780
078F00
038E00
03DE00
01DC00
00F800
00F800
007000
007000
007000
007000
007000
007000
007000
007000
007000
007000
ENDCHAR
STARTCHAR Thorn
ENCODING 222
SWIDTH 666 0
DWIDTH 21 0
BBX 17 23 3 0
BITMAP
E00000
E00000
E00000
E00000
FFF800
FFFE00
FFFF00
E00F00
E00780
E00380
E00380
E00380
E00380
E00380
E00700
E00F00
FFFE00
FFFC00
FFF000
E00000
E00000
E00000
E00000
ENDCHAR
STARTCHAR germandbls
ENCODING 223
SWIDTH 610 0
DWIDTH 20 0
BBX 16 23 2 0
BITMAP
0FC0
3FE0
7FF0
7878
F038
E038
E078
E070
E0E0
E1E0
E1C0
E1C0
E1F0
E0F8
E03E
E00E
E007
E007
E607
EF0F
E7FE
E3FC
E0F8
ENDCHAR
STARTCHAR agrave
ENCODING 224
SWIDTH 556 0
DWIDTH 17 0
BBX 15 23 1 0
BITMAP
0F00
0780
0380
01C0
0000
0000
0FE0
3FF8
7FF8
F03C
E01C
001C
007C
0FFC
3FFC
7F9C
F01C
E01C
E03C
F0FC
7FFC
7FDC
1F0E
ENDCHAR
STARTCHAR aacute
ENCODING 225
SWIDTH 556 0
DWIDTH 17 0
BBX 15 23 1 0
BITMAP
00F0
01E0
01C0
0380
0000
0000
0FE0
3FF8
7FF8
F03C
E01C
001C
007C
0FFC
3FFC
7F9C
F01C
E01C
E03C
F0FC
7FFC
7FDC
1F0E
ENDCHAR
STARTCHAR acircumflex
ENCODING 226
SWIDTH 556 0
DWIDTH 17 0
BBX 15 23 1 0
BITMAP
0F80
1FC0
3DE0
78F0
0000
0000
0FE0
3FF8
7FF8
F03C
E01C
001C
007C
0FFC
3FFC
7F9C
F01C
E01C
E03C
F0FC
7FFC
7FDC
1F0E
ENDCHAR
STARTCHAR atilde
ENCODING 227
SWIDTH 556 0
DWIDTH 17 0
BBX 15 23 1 0
BITMAP
0F30
0FF0
1FF0
19E0
0000
0000
0FE0
3FF8
7FF8
F03C
E01C
001C
007C
0FFC
3FFC
7F9C
F01C
E01C
E03C
F0FC
7FFC
7FDC
1F0E
ENDCHAR
STARTCHAR adieresis
ENCODING 228
SWIDTH 556 0
DWIDTH 17 0
BBX 15 22 1 0
BITMAP
1C70
1C70
1C70
0000
0000
0FE0
3FF8
7FF8
F03C
E01C
001C
007C
0FFC
3FFC
7F9C
F01C
E01C
E03C
F0FC
7FFC
7FDC
1F0E
ENDCHAR
STARTCHAR aring
ENCODING 229
SWIDTH 556 0
DWIDTH 17 0
BBX 15 24 1 0
BITMAP
0380
0440
0440
0440
0380
0000
0000
0FE0
3FF8
7FF8
F03C
E01C
001C
007C
0FFC
3FFC
7F9C
F01C
E01C
E03C
F0FC
7FFC
7FDC
1F0E
ENDCHAR
STARTCHAR ae
ENCODING 230
SWIDTH 889 0
DWIDTH 28 0
BBX 26 17 1 0
BITMAP
0FE0F800
3FFBFE00
7FFFFF00
F03F0780
E01E0380
007C01C0
0FFFFFC0
3FFFFFC0
7F9FFFC0
F81C0000
E01C0000
E01C0000
E03E01C0
F07F0780
7FF7FF80
3FE3FF00
1F80FC00
ENDCHAR
STARTCHAR ccedilla
ENCODING 231
SWIDTH 500 0
DWIDTH 16 0
BBX 14 24 1 -7
BITMAP
0780
1FE0
3FF0
7878
7038
E01C
E000
E000
E000
E000
E000
E01C
703C
7878
3FF8
1FF0
0FC0
0300
0300
0780
00C0
00C0
0FC0
0F00
ENDCHAR
STARTCHAR egrave
ENCODING 232
SWIDTH 556 0
DWIDTH 17 0
BBX 15 23 1 0
BITMAP
0F00
0780
0380
01C0
0000
0000
07C0
1FF0
3FF8
783C
701C
E00E
E00E
FFFE
FFFE
E000
E000
F000
700E
7C3C
3FFC
1FF8
07E0
ENDCHAR
STARTCHAR eacute
ENCODING 233
SWIDTH 556 0
DWIDTH 17 0
BBX 15 23 1 0
BITMAP
00F0
01E0
01C0
0380
0000
0000
07C0
1FF0
3FF8
783C
701C
E00E
E00E
FFFE
FFFE
E000
E000
F000
700E
7C3C
3FFC
1FF8
07E0
ENDCHAR
STARTCHAR ecircumflex
ENCODING 234
SWIDTH 556 0
DWIDTH 17 0
BBX 15 23 1 0
BITMAP
07C0
0FE0
1EF0
3C78
0000
0000
07C0
1FF0
3FF8
783C
701C
E00E
E00E
FFFE
FFFE
E000
E000
F000
700E
7C3C
3FFC
1FF8
07E0
ENDCHAR
STARTCHAR edieresis
ENCODING 235
SWIDTH 556 0
DWIDTH 17 0
BBX 15 22 1 0
BITMAP
1C70
1C70
1C70
0000
0000
07C0
1FF0
3FF8
783C
701C
E00E
E00E
FFFE
FFFE
E000
E000
F000
700E
7C3C
3FFC
1FF8
07E0
ENDCHAR
STARTCHAR igrave
ENCODING 236
SWIDTH 277 0
DWIDTH 9 0
BBX 6 23 1 0
BITMAP
F0
78
38
1C
00
00
38
38
38
38
38
38
38
38
38
38
38
38
38
38
38
38
38
ENDCHAR
STARTCHAR iacute
ENCODING 237
SWIDTH 277 0
DWIDTH 9 0
BBX 6 23 2 0
BITMAP
3C
78
70
E0
00
00
70
70
70
70
70
70
70
70
70
70
70
70
70
70
70
70
70
ENDCHAR
STARTCHAR icircumflex
ENCODING 238
SWIDTH 277 0
DWIDTH 9 0
BBX 10 23 -1 0
BITMAP
1F00
3F80
7BC0
E1C0
0000
0000
0E00
0E00
0E00
0E00
0E00
0E00
0E00
0E00
0E00
0E00
0E00
0E00
0E00
0E00
0E00
0E00
0E00
ENDCHAR
STARTCHAR idieresis
ENCODING 239
SWIDTH 277 0
DWIDTH 9 0
BBX 9 22 0 0
BITMAP
E380
E380
E380
0000
0000
1C00
1C00
1C00
1C00
1C00
1C00
1C00
1C00
1C00
1C00
1C00
1C00
1C00
1C00
1C00
1C00
1C00
ENDCHAR
STARTCHAR eth
ENCODING 240
SWIDTH 556 0
DWIDTH 18 0
BBX 16 23 1 0
BITMAP
0F08
03BC
01F0
07E0
1E70
0838
07FC
1FFC
3FFE
7C3E
700E
F00F
E007
E007
E007
E007
E007
F00F
700E
7C3E
3FFC
1FF8
07E0
ENDCHAR
STARTCHAR ntilde
ENCODING 241
SWIDTH 556 0
DWIDTH 18 0
BBX 14 23 2 0
BITMAP
0F30
0FF0
1FF0
19E0
0000
0000
E3E0
EFF8
FFF8
F83C
F01C
E01C
E01C
E01C
E01C
E01C
E01C
E01C
E01C
E01C
E01C
E01C
E01C
ENDCHAR
STARTCHAR ograve
ENCODING 242
SWIDTH 556 0
DWIDTH 17 0
BBX 15 23 1 0
BITMAP
0F00
0780
0380
01C0
0000
0000
07C0
1FF0
3FF8
783C
701C
F01E
E00E
E00E
E00E
E00E
E00E
F01E
701C
783C
3FF8
1FF0
07C0
ENDCHAR
STARTCHAR oacute
ENCODING 243
SWIDTH 556 0
DWIDTH 17 0
BBX 15 23 1 0
BITMAP
00F0
01E0
01C0
0380
0000
0000
07C0
1FF0
3FF8
783C
701C
F01E
E00E
E00E
E00E
E00E
E00E
F01E
701C
783C
3FF8
1FF0
07C0
ENDCHAR
STARTCHAR ocircumflex
ENCODING 244
SWIDTH 556 0
DWIDTH 17 0
BBX 15 23 1 0
BITMAP
07C0
0FE0
1EF0
3C78
0000
0000
07C0
1FF0
3FF8
783C
701C
F01E
E00E
E00E
E00E
E00E
E00E
F01E
701C
783C
3FF8
1FF0
07C0
ENDCHAR
STARTCHAR otilde
ENCODING 245
SWIDTH 556 0
DWIDTH 17 0
BBX 15 23 1 0
BITMAP
0F30
0FF0
1FF0
19E0
0000
0000
07C0
1FF0
3FF8
783C
701C
F01E
E00E
E00E
E00E
E00E
E00E
F01E
701C
783C
3FF8
1FF0
07C0
ENDCHAR
STARTCHAR odieresis
ENCODING 246
SWIDTH 556 0
DWIDTH 17 0
BBX 15 22 1 0
BITMAP
1C70
1C70
1C70
0000
0000
07C0
1FF0
3FF8
783C
701C
F01E
E00E
E00E
E00E
E00E
E00E
F01E
701C
783C
3FF8
1FF0
07C0
ENDCHAR
STARTCHAR divide
ENCODING 247
SWIDTH 548 0
DWIDTH 18 0
BBX 15 13 1 5
BITMAP
0380
0380
0380
0000
0000
FFFE
FFFE
FFFE
0000
0000
0380
0380
0380
ENDCHAR
STARTCHAR oslash
ENCODING 248
SWIDTH 610 0
DWIDTH 20 0
BBX 16 19 2 -1
BITMAP
0006
07C7
1FFE
3FFC
7C3E
707E
F07F
E0E7
E1C7
E387
E707
E707
EE0F
FC0E
783E
7FFC
7FF8
E7E0
4000
ENDCHAR
STARTCHAR ugrave
ENCODING 249
SWIDTH 556 0
DWIDTH 18 0
BBX 14 23 2 0
BITMAP
1E00
0F00
0700
0380
0000
0000
E01C
E01C
E01C
E01C
E01C
E01C
E01C
E01C
E01C
E01C
E01C
E01C
F03C
F87C
7FDC
7FDC
1F1C
ENDCHAR
STARTCHAR uacute
ENCODING 250
SWIDTH 556 0
DWIDTH 18 0
BBX 14 23 2 0
BITMAP
01E0
03C0
0380
0700
0000
0000
E01C
E01C
E01C
E01C
E01C
E01C
E01C
E01C
E01C
E01C
E01C
E01C
F03C
F87C
7FDC
7FDC
1F1C
ENDCHAR
STARTCHAR ucircumflex
ENCODING 251
SWIDTH 556 0
DWIDTH 18 0
BBX 14 23 2 0
BITMAP
0780
0FC0
1CE0
3870
0000
0000
E01C
E01C
E01C
E01C
E01C
E01C
E01C
E01C
E01C
E01C
E01C
E01C
F03C
F87C
7FDC
7FDC
1F1C
ENDCHAR
STARTCHAR udieresis
ENCODING 252
SWIDTH 556 0
DWIDTH 18 0
BBX 14 22 2 0
BITMAP
38E0
38E0
38E0
0000
0000
E01C
E01C
E01C
E01C
E01C
E01C
E01C
E01C
E01C
E01C
E01C
E01C
F03C
F87C
7FDC
7FDC
1F1C
ENDCHAR
STARTCHAR yacute
ENCODING 253
SWIDTH 500 0
DWIDTH 15 0
BBX 15 29 0 -6
BITMAP
00F0
01E0
01C0
0380
0000
0000
E00E
701E
701C
701C
3838
3838
3838
1C70
1C70
0C70
0EE0
0EE0
06E0
07C0
07C0
03C0
0380
0380
0700
0700
3F00
3E00
3C00
ENDCHAR
STARTCHAR thorn
ENCODING 254
SWIDTH 556 0
DWIDTH 18 0
BBX 15 29 2 -6
BITMAP
E000
E000
E000
E000
E000
E000
E7C0
EFF0
FFF8
F87C
F01C
E01E
E00E
E00E
E00E
E00E
E00E
E01E
F01C
F87C
FFF8
EFF0
E7C0
E000
E000
E000
E000
E000
E000
ENDCHAR
STARTCHAR ydieresis
ENCODING 255
SWIDTH 500 0
DWIDTH 15 0
BBX 15 28 0 -6
BITMAP
1C70
1C70
1C70
0000
0000
E00E
701E
701C
701C
3838
3838
3838
1C70
1C70
0C70
0EE0
0EE0
06E0
07C0
07C0
03C0
0380
0380
0700
0700
3F00
3E00
3C00
ENDCHAR
ENDFONT
