STARTFONT 2.1
FONT -FontForge-Arial-Book-R-Normal--36-350-75-75-P-190-ISO10646-1
SIZE 35 75 75
FONTBOUNDINGBOX 37 35 -2 -8
COMMENT "Generated by fontforge, http://fontforge.sourceforge.net"
COMMENT "(c) 2017 The Monotype Corporation. All Rights Reserved. "
COMMENT ""
COMMENT "Hebrew OpenType Layout logic copyright (c) 2003 & 2007, Ralph Hancock & John Hudson. This layout logic for Biblical Hebrew is open source software under the MIT License; see embedded license description for details."
STARTPROPERTIES 40
FOUNDRY "FontForge"
FAMILY_NAME "Arial"
WEIGHT_NAME "Book"
SLANT "R"
SETWIDTH_NAME "Normal"
ADD_STYLE_NAME ""
PIXEL_SIZE 36
POINT_SIZE 350
RESOLUTION_X 75
RESOLUTION_Y 75
SPACING "P"
AVERAGE_WIDTH 190
CHARSET_REGISTRY "ISO10646"
CHARSET_ENCODING "1"
FONTNAME_REGISTRY ""
CHARSET_COLLECTIONS "ASCII ISOLatin1Encoding ISO8859-2 ISO8859-5 ISO8859-7 ISO8859-9 ISO8859-8 ISO8859-6 ISO8859-4 ISO10646-1"
FONT_NAME "ArialMT"
FACE_NAME "Arial"
COPYRIGHT "(c) 2017 The Monotype Corporation. All Rights Reserved. "
FONT_VERSION "7.00"
FONT_ASCENT 29
FONT_DESCENT 7
UNDERLINE_POSITION -5
UNDERLINE_THICKNESS 3
X_HEIGHT 18
CAP_HEIGHT 25
RAW_ASCENT 799
RAW_DESCENT 200
NORM_SPACE 10
RELATIVE_WEIGHT 40
RELATIVE_SETWIDTH 50
SUPERSCRIPT_X 0
SUPERSCRIPT_Y 17
SUPERSCRIPT_SIZE 23
SUBSCRIPT_X 0
SUBSCRIPT_Y 4
SUBSCRIPT_SIZE 23
FIGURE_WIDTH 20
AVG_LOWERCASE_WIDTH 173
AVG_UPPERCASE_WIDTH 242
ENDPROPERTIES
CHARS 94
STARTCHAR space
ENCODING 32
SWIDTH 277 0
DWIDTH 10 0
BBX 1 1 0 0
BITMAP
00
ENDCHAR
STARTCHAR exclam
ENCODING 33
SWIDTH 277 0
DWIDTH 11 0
BBX 3 26 4 0
BITMAP
E0
E0
E0
E0
E0
E0
E0
E0
E0
E0
E0
E0
E0
40
40
40
40
40
40
40
00
00
00
E0
E0
E0
ENDCHAR
STARTCHAR quotedbl
ENCODING 34
SWIDTH 354 0
DWIDTH 13 0
BBX 10 9 1 17
BITMAP
E1C0
E1C0
E1C0
E1C0
E1C0
E1C0
E1C0
E1C0
4080
ENDCHAR
STARTCHAR numbersign
ENCODING 35
SWIDTH 556 0
DWIDTH 20 0
BBX 20 26 0 0
BITMAP
01C1C0
01C1C0
01C3C0
038380
038380
038380
038380
FFFFF0
FFFFF0
FFFFF0
070700
070700
070700
0E0E00
0E0E00
0E0E00
FFFFF0
FFFFF0
FFFFF0
1C1C00
1C1C00
1C1C00
1C1C00
3C3800
383800
383800
ENDCHAR
STARTCHAR dollar
ENCODING 36
SWIDTH 556 0
DWIDTH 20 0
BBX 17 30 1 -3
BITMAP
00C000
07F000
1FFC00
3FFE00
3CCE00
78C700
70C700
70C000
70C000
70C000
38C000
3FC000
1FF000
07FC00
01FE00
00DF00
00C700
00C380
00C380
E0C380
E0C380
F0C780
78C700
7CCF00
3FFE00
1FFC00
03F000
00C000
00C000
00C000
ENDCHAR
STARTCHAR percent
ENCODING 37
SWIDTH 889 0
DWIDTH 32 0
BBX 28 26 2 0
BITMAP
1F000E00
3F801E00
71C01C00
71C03C00
E0E03800
E0E07000
E0E0F000
E0E0E000
E0E1E000
E0E1C000
61C3C000
71C38000
3F870F80
1F071FC0
000E38E0
001E38E0
001C7070
003C7070
00387070
00787070
00707070
00E07070
01E030E0
01C038E0
03C01FC0
03800F80
ENDCHAR
STARTCHAR ampersand
ENCODING 38
SWIDTH 666 0
DWIDTH 24 0
BBX 21 26 2 0
BITMAP
01F000
07F800
0FFC00
1E1E00
1C0E00
1C0E00
1C0E00
1E0E00
0E1C00
0F7800
07F000
07E000
0FC000
3EE000
78F080
7078E0
F03DE0
E01DC0
E00FC0
E00F80
F00780
700FC0
7C3FE0
3FFEF8
1FF870
07E020
ENDCHAR
STARTCHAR quotesingle
ENCODING 39
SWIDTH 190 0
DWIDTH 7 0
BBX 3 9 2 17
BITMAP
E0
E0
E0
E0
E0
E0
E0
E0
40
ENDCHAR
STARTCHAR parenleft
ENCODING 40
SWIDTH 333 0
DWIDTH 12 0
BBX 8 33 2 -7
BITMAP
03
06
0E
0C
1C
18
38
30
70
70
70
E0
E0
E0
E0
E0
E0
E0
E0
E0
E0
60
70
70
70
30
38
18
1C
0C
0E
06
03
ENDCHAR
STARTCHAR parenright
ENCODING 41
SWIDTH 333 0
DWIDTH 12 0
BBX 8 33 2 -7
BITMAP
C0
60
70
30
38
18
1C
0C
0E
0E
0E
06
07
07
07
07
07
07
07
07
07
06
0E
0E
0E
1C
1C
18
38
30
70
60
C0
ENDCHAR
STARTCHAR asterisk
ENCODING 42
SWIDTH 389 0
DWIDTH 14 0
BBX 13 11 1 15
BITMAP
0700
0700
0700
7770
FFF8
3FE0
0F80
1DC0
3DE0
38E0
1040
ENDCHAR
STARTCHAR plus
ENCODING 43
SWIDTH 583 0
DWIDTH 21 0
BBX 17 17 2 4
BITMAP
01C000
01C000
01C000
01C000
01C000
01C000
01C000
FFFF80
FFFF80
FFFF80
01C000
01C000
01C000
01C000
01C000
01C000
01C000
ENDCHAR
STARTCHAR comma
ENCODING 44
SWIDTH 277 0
DWIDTH 10 0
BBX 3 9 3 -6
BITMAP
E0
E0
E0
60
60
60
60
C0
C0
ENDCHAR
STARTCHAR period
ENCODING 46
SWIDTH 277 0
DWIDTH 10 0
BBX 3 3 3 0
BITMAP
E0
E0
E0
ENDCHAR
STARTCHAR slash
ENCODING 47
SWIDTH 277 0
DWIDTH 10 0
BBX 10 26 0 0
BITMAP
01C0
01C0
0380
0380
0380
0380
0700
0700
0700
0E00
0E00
0E00
0E00
1C00
1C00
1C00
1C00
3800
3800
3800
7800
7000
7000
7000
E000
E000
ENDCHAR
STARTCHAR zero
ENCODING 48
SWIDTH 556 0
DWIDTH 20 0
BBX 16 26 2 0
BITMAP
07E0
1FF8
3FFC
3C3C
781E
700E
700E
E007
E007
E007
E007
E007
E007
E007
E007
E007
E007
E007
E007
700E
700E
781E
3C3C
3FFC
1FF8
07E0
ENDCHAR
STARTCHAR one
ENCODING 49
SWIDTH 556 0
DWIDTH 20 0
BBX 9 26 4 0
BITMAP
0180
0380
0780
0F80
1F80
3F80
FB80
F380
C380
0380
0380
0380
0380
0380
0380
0380
0380
0380
0380
0380
0380
0380
0380
0380
0380
0380
ENDCHAR
STARTCHAR two
ENCODING 50
SWIDTH 556 0
DWIDTH 20 0
BBX 17 26 1 0
BITMAP
07F000
1FFC00
3FFE00
7C1F00
700700
E00780
E00380
000380
000380
000380
000700
000F00
000E00
001C00
003800
007000
01E000
03C000
078000
0F0000
1E0000
380000
700000
7FFF80
FFFF80
FFFF80
ENDCHAR
STARTCHAR three
ENCODING 51
SWIDTH 556 0
DWIDTH 20 0
BBX 16 26 2 0
BITMAP
07E0
1FF8
3FFC
783C
701E
E00E
E00E
000E
001C
003C
03F8
03F8
03FC
001E
000E
0007
0007
0007
0007
E007
E00F
700E
783E
3FFC
1FF8
07E0
ENDCHAR
STARTCHAR four
ENCODING 52
SWIDTH 556 0
DWIDTH 20 0
BBX 17 26 1 0
BITMAP
001C00
003C00
007C00
007C00
00FC00
01FC00
01DC00
03DC00
079C00
071C00
0F1C00
0E1C00
1C1C00
3C1C00
381C00
701C00
F01C00
FFFF80
FFFF80
FFFF80
001C00
001C00
001C00
001C00
001C00
001C00
ENDCHAR
STARTCHAR five
ENCODING 53
SWIDTH 556 0
DWIDTH 20 0
BBX 16 26 2 0
BITMAP
1FFE
1FFE
3FFE
3800
3800
3800
7800
7000
73E0
7FF8
7FFC
F83E
E00E
000F
0007
0007
0007
0007
0007
E007
E00E
700E
783C
3FFC
1FF0
07E0
ENDCHAR
STARTCHAR six
ENCODING 54
SWIDTH 556 0
DWIDTH 20 0
BBX 17 26 1 0
BITMAP
03F000
0FFC00
1FFE00
3E1F00
380700
780780
700380
700000
E00000
E1F000
E7FC00
EFFE00
FC1F00
F80700
F00780
E00380
E00380
E00380
E00380
600380
700700
780700
3C1F00
1FFE00
0FFC00
03F000
ENDCHAR
STARTCHAR seven
ENCODING 55
SWIDTH 556 0
DWIDTH 20 0
BBX 17 26 1 0
BITMAP
FFFF80
FFFF80
FFFF80
000300
000600
000E00
001C00
003800
003800
007000
007000
00E000
00E000
01C000
01C000
038000
038000
038000
070000
070000
070000
070000
0E0000
0E0000
0E0000
0E0000
ENDCHAR
STARTCHAR eight
ENCODING 56
SWIDTH 556 0
DWIDTH 20 0
BBX 16 26 2 0
BITMAP
07E0
1FF8
3FFC
3C3C
781E
700E
700E
700E
781E
3C3C
1FF8
0FF0
3FFC
781E
700E
E00F
E007
E007
E007
E007
E00F
700E
7C1E
3FFC
1FF8
07E0
ENDCHAR
STARTCHAR nine
ENCODING 57
SWIDTH 556 0
DWIDTH 20 0
BBX 16 26 2 0
BITMAP
07C0
1FF0
3FF8
7C1C
700E
F00E
E006
E007
E007
E007
E007
F00F
700F
783F
3FF7
1FE7
07C7
0007
000E
E00E
E00E
701C
783C
3FF8
1FF0
0FC0
ENDCHAR
STARTCHAR colon
ENCODING 58
SWIDTH 277 0
DWIDTH 10 0
BBX 3 19 3 0
BITMAP
E0
E0
E0
00
00
00
00
00
00
00
00
00
00
00
00
00
E0
E0
E0
ENDCHAR
STARTCHAR less
ENCODING 60
SWIDTH 583 0
DWIDTH 21 0
BBX 17 17 2 4
BITMAP
000080
000780
001F80
00FF00
03F800
0FE000
7F0000
FC0000
E00000
FC0000
7F0000
0FE000
03F800
00FF00
001F80
000780
000080
ENDCHAR
STARTCHAR equal
ENCODING 61
SWIDTH 583 0
DWIDTH 21 0
BBX 17 11 2 7
BITMAP
FFFF80
FFFF80
FFFF80
000000
000000
000000
000000
000000
FFFF80
FFFF80
FFFF80
ENDCHAR
STARTCHAR greater
ENCODING 62
SWIDTH 583 0
DWIDTH 21 0
BBX 17 17 2 4
BITMAP
800000
F00000
FC0000
7F8000
0FE000
03F800
007F00
001F80
000380
001F80
007F00
03F800
0FE000
7F8000
FC0000
F00000
800000
ENDCHAR
STARTCHAR question
ENCODING 63
SWIDTH 556 0
DWIDTH 20 0
BBX 16 26 2 0
BITMAP
07E0
1FF8
3FFC
7C3E
700F
E007
E007
0007
0007
000E
001E
003C
0078
00F0
01E0
01C0
0380
0380
0380
0380
0000
0000
0000
0380
0380
0380
ENDCHAR
STARTCHAR at
ENCODING 64
SWIDTH 1015 0
DWIDTH 37 0
BBX 33 34 2 -8
BITMAP
0007FC0000
003FFF0000
00FFFFC000
03F807E000
07E001F000
0F80007800
0F00003C00
1E03E39E00
3C0FF38E00
381FFB0E00
783C1F0F00
70780F0700
7070070700
F0E0070700
E0E0060700
E1C0060700
E1C0060700
E1C0060E00
E1C00E0E00
E1C00C1E00
E1C01C1C00
E0E03C3800
70F0FCF800
707FFFF000
783F9FE000
381F0F8000
3C00000380
1E00000700
1F00001E00
0FC0003C00
03F801F800
01FFFFF000
007FFFC000
0007FE0000
ENDCHAR
STARTCHAR A
ENCODING 65
SWIDTH 666 0
DWIDTH 23 0
BBX 23 26 0 0
BITMAP
007C00
007C00
007C00
00EE00
00EE00
01EF00
01C700
01C700
038380
038380
038380
0701C0
0701C0
0F01E0
0E00E0
0FFFE0
1FFFF0
1FFFF0
1C0070
380038
380038
78003C
70001C
70001C
F0001E
E0000E
ENDCHAR
STARTCHAR B
ENCODING 66
SWIDTH 666 0
DWIDTH 24 0
BBX 19 26 3 0
BITMAP
FFF800
FFFE00
FFFF80
E00780
E003C0
E001C0
E001C0
E001C0
E001C0
E00380
E00780
FFFF00
FFFF00
FFFF80
E007C0
E001C0
E000E0
E000E0
E000E0
E000E0
E000E0
E001C0
E007C0
FFFF80
FFFF00
FFFC00
ENDCHAR
STARTCHAR C
ENCODING 67
SWIDTH 722 0
DWIDTH 26 0
BBX 22 26 2 0
BITMAP
00FE00
03FF80
0FFFC0
1F03E0
3C00F0
380070
700078
700038
F00000
E00000
E00000
E00000
E00000
E00000
E00000
E00000
E00000
70001C
70003C
780038
380078
3C00F0
1F03F0
0FFFE0
07FF80
00FE00
ENDCHAR
STARTCHAR D
ENCODING 68
SWIDTH 722 0
DWIDTH 26 0
BBX 21 26 3 0
BITMAP
FFFC00
FFFF00
FFFF80
E007C0
E001E0
E000E0
E00070
E00070
E00078
E00038
E00038
E00038
E00038
E00038
E00038
E00038
E00038
E00070
E00070
E00070
E000E0
E001E0
E007C0
FFFF80
FFFF00
FFF800
ENDCHAR
STARTCHAR E
ENCODING 69
SWIDTH 666 0
DWIDTH 24 0
BBX 19 26 3 0
BITMAP
FFFFC0
FFFFC0
FFFFC0
E00000
E00000
E00000
E00000
E00000
E00000
E00000
E00000
FFFF80
FFFF80
FFFF80
E00000
E00000
E00000
E00000
E00000
E00000
E00000
E00000
E00000
FFFFE0
FFFFE0
FFFFE0
ENDCHAR
STARTCHAR F
ENCODING 70
SWIDTH 610 0
DWIDTH 22 0
BBX 17 26 3 0
BITMAP
FFFF80
FFFF80
FFFF80
E00000
E00000
E00000
E00000
E00000
E00000
E00000
E00000
FFFE00
FFFE00
FFFE00
E00000
E00000
E00000
E00000
E00000
E00000
E00000
E00000
E00000
E00000
E00000
E00000
ENDCHAR
STARTCHAR G
ENCODING 71
SWIDTH 777 0
DWIDTH 28 0
BBX 24 26 2 0
BITMAP
007F80
03FFE0
07FFF8
0F80FC
1E003C
3C001E
78000E
700007
700000
E00000
E00000
E00000
E00000
E007FF
E007FF
E007FF
E00007
700007
700007
780007
3C0007
1E001F
0FC07F
07FFFC
03FFF0
007F80
ENDCHAR
STARTCHAR H
ENCODING 72
SWIDTH 722 0
DWIDTH 26 0
BBX 20 26 3 0
BITMAP
E00070
E00070
E00070
E00070
E00070
E00070
E00070
E00070
E00070
E00070
E00070
FFFFF0
FFFFF0
FFFFF0
E00070
E00070
E00070
E00070
E00070
E00070
E00070
E00070
E00070
E00070
E00070
E00070
ENDCHAR
STARTCHAR I
ENCODING 73
SWIDTH 277 0
DWIDTH 9 0
BBX 3 26 3 0
BITMAP
E0
E0
E0
E0
E0
E0
E0
E0
E0
E0
E0
E0
E0
E0
E0
E0
E0
E0
E0
E0
E0
E0
E0
E0
E0
E0
ENDCHAR
STARTCHAR J
ENCODING 74
SWIDTH 500 0
DWIDTH 18 0
BBX 14 26 1 0
BITMAP
001C
001C
001C
001C
001C
001C
001C
001C
001C
001C
001C
001C
001C
001C
001C
001C
001C
001C
E01C
E01C
E01C
F03C
7878
7FF8
3FF0
0FC0
ENDCHAR
STARTCHAR K
ENCODING 75
SWIDTH 666 0
DWIDTH 24 0
BBX 21 26 3 0
BITMAP
E000F0
E001E0
E003C0
E00780
E00F00
E01E00
E03C00
E07800
E0F000
E1E000
E3C000
E7C000
EFE000
FEF000
FC7000
F83800
F03C00
E01E00
E00E00
E00700
E00780
E003C0
E001C0
E000E0
E000F0
E00078
ENDCHAR
STARTCHAR L
ENCODING 76
SWIDTH 556 0
DWIDTH 20 0
BBX 16 26 3 0
BITMAP
E000
E000
E000
E000
E000
E000
E000
E000
E000
E000
E000
E000
E000
E000
E000
E000
E000
E000
E000
E000
E000
E000
E000
FFFF
FFFF
FFFF
ENDCHAR
STARTCHAR M
ENCODING 77
SWIDTH 833 0
DWIDTH 29 0
BBX 23 26 3 0
BITMAP
F8003E
FC007E
FC007E
FC007E
FE007E
EE00EE
EE00EE
EE00EE
E701CE
E701CE
E701CE
E781CE
E3838E
E3838E
E3838E
E1C70E
E1C70E
E1C70E
E1EE0E
E0EE0E
E0EE0E
E0EE0E
E07C0E
E07C0E
E07C0E
E0780E
ENDCHAR
STARTCHAR N
ENCODING 78
SWIDTH 722 0
DWIDTH 26 0
BBX 20 26 3 0
BITMAP
F00070
F00070
F80070
FC0070
FC0070
FE0070
EE0070
E70070
E78070
E38070
E1C070
E1E070
E0E070
E07070
E07870
E03870
E01C70
E01E70
E00E70
E00770
E007F0
E003F0
E003F0
E001F0
E000F0
E000F0
ENDCHAR
STARTCHAR O
ENCODING 79
SWIDTH 777 0
DWIDTH 28 0
BBX 24 26 2 0
BITMAP
00FF00
03FFC0
0FFFE0
1F81F8
1E0078
3C003C
78001E
70000E
70000E
E00007
E00007
E00007
E00007
E00007
E00007
E00007
E00007
70000E
70000E
78001E
3C003C
1E0078
1F81F8
07FFF0
03FFC0
00FF00
ENDCHAR
STARTCHAR P
ENCODING 80
SWIDTH 666 0
DWIDTH 24 0
BBX 19 26 3 0
BITMAP
FFFC00
FFFF00
FFFF80
E003C0
E001C0
E000E0
E000E0
E000E0
E000E0
E000E0
E001C0
E007C0
FFFF80
FFFF00
FFFC00
E00000
E00000
E00000
E00000
E00000
E00000
E00000
E00000
E00000
E00000
E00000
ENDCHAR
STARTCHAR Q
ENCODING 81
SWIDTH 777 0
DWIDTH 28 0
BBX 24 28 2 -2
BITMAP
00FE00
03FF80
0FFFE0
1F83F0
3E00F8
380078
78003C
70001C
70001C
E0000E
E0000E
E0000E
E0000E
E0000E
E0000E
E0000E
E0000E
70001C
70081C
780E3C
380FF8
3E07F8
1F83F0
0FFFF8
03FFFE
00FF3F
00000E
000002
ENDCHAR
STARTCHAR R
ENCODING 82
SWIDTH 722 0
DWIDTH 26 0
BBX 21 26 3 0
BITMAP
FFFE00
FFFF80
FFFFC0
E003E0
E000F0
E00070
E00070
E00070
E00070
E000F0
E003E0
FFFFC0
FFFF80
FFFE00
E07800
E03E00
E01E00
E00F00
E00780
E00780
E003C0
E001E0
E001E0
E000F0
E000F0
E00078
ENDCHAR
STARTCHAR S
ENCODING 83
SWIDTH 666 0
DWIDTH 24 0
BBX 20 26 2 0
BITMAP
03F800
0FFF00
1FFF80
3E07C0
7803C0
7001E0
7000E0
7000E0
780000
3C0000
3F8000
1FF800
07FF00
01FFC0
001FE0
0003E0
0000F0
E00070
E00070
F00070
7000F0
7800E0
3E03E0
1FFFC0
0FFF80
01FC00
ENDCHAR
STARTCHAR T
ENCODING 84
SWIDTH 610 0
DWIDTH 21 0
BBX 19 26 1 0
BITMAP
FFFFE0
FFFFE0
FFFFE0
00E000
00E000
00E000
00E000
00E000
00E000
00E000
00E000
00E000
00E000
00E000
00E000
00E000
00E000
00E000
00E000
00E000
00E000
00E000
00E000
00E000
00E000
00E000
ENDCHAR
STARTCHAR U
ENCODING 85
SWIDTH 722 0
DWIDTH 26 0
BBX 20 26 3 0
BITMAP
E00070
E00070
E00070
E00070
E00070
E00070
E00070
E00070
E00070
E00070
E00070
E00070
E00070
E00070
E00070
E00070
E00070
E00070
E00070
F000F0
7000E0
7801E0
3E07C0
3FFF80
0FFF00
03FC00
ENDCHAR
STARTCHAR V
ENCODING 86
SWIDTH 666 0
DWIDTH 24 0
BBX 23 26 1 0
BITMAP
E0000E
F0001E
70001C
70001C
78003C
380038
3C0078
1C0070
1C0070
1E00F0
0E00E0
0E00E0
0701C0
0701C0
0783C0
038380
038380
03C780
01C700
01CF00
00EE00
00EE00
00FE00
007C00
007C00
007C00
ENDCHAR
STARTCHAR W
ENCODING 87
SWIDTH 943 0
DWIDTH 36 0
BBX 35 26 0 0
BITMAP
E001F000E0
E001F000E0
7001F001C0
7003B801C0
7003B801C0
7003B801C0
38071C0380
38071C0380
38071C0380
380F1E0380
1C0E0E0700
1C0E0E0700
1C1E0E0700
1C1C070700
0E1C070E00
0E1C070E00
0E38038E00
0E38038E00
0F38039E00
077801DC00
077001DC00
077001DC00
07F001FC00
03E000F800
03E000F800
03E000F800
ENDCHAR
STARTCHAR X
ENCODING 88
SWIDTH 666 0
DWIDTH 23 0
BBX 23 26 0 0
BITMAP
78003C
3C0078
1C0070
1E00F0
0F01E0
0701C0
038380
03C780
01EF00
00EE00
00FE00
007C00
003800
007C00
00FE00
01EF00
01C700
03C780
0783C0
0701C0
0E00E0
1E00F0
3C0078
380038
78003C
F0001E
ENDCHAR
STARTCHAR Y
ENCODING 89
SWIDTH 666 0
DWIDTH 23 0
BBX 23 26 0 0
BITMAP
F0001E
70001C
380038
3C0078
1C0070
0E00E0
0F01E0
0701C0
038380
03C780
01C700
00EE00
00FE00
007C00
003800
003800
003800
003800
003800
003800
003800
003800
003800
003800
003800
003800
ENDCHAR
STARTCHAR Z
ENCODING 90
SWIDTH 610 0
DWIDTH 22 0
BBX 20 26 1 0
BITMAP
3FFFE0
3FFFE0
3FFFE0
0001E0
0003C0
000780
000700
000F00
001E00
003C00
003800
007000
00F000
01E000
03C000
038000
078000
0F0000
1E0000
1C0000
380000
780000
F00000
FFFFF0
FFFFF0
FFFFF0
ENDCHAR
STARTCHAR bracketleft
ENCODING 91
SWIDTH 277 0
DWIDTH 10 0
BBX 7 33 2 -7
BITMAP
FE
FE
FE
E0
E0
E0
E0
E0
E0
E0
E0
E0
E0
E0
E0
E0
E0
E0
E0
E0
E0
E0
E0
E0
E0
E0
E0
E0
E0
E0
FE
FE
FE
ENDCHAR
STARTCHAR backslash
ENCODING 92
SWIDTH 277 0
DWIDTH 10 0
BBX 10 26 0 0
BITMAP
E000
E000
7000
7000
7000
7000
3800
3800
3800
1C00
1C00
1C00
1C00
0E00
0E00
0E00
0E00
0700
0700
0700
0780
0380
0380
0380
01C0
01C0
ENDCHAR
STARTCHAR bracketright
ENCODING 93
SWIDTH 277 0
DWIDTH 10 0
BBX 7 33 1 -7
BITMAP
FE
FE
FE
0E
0E
0E
0E
0E
0E
0E
0E
0E
0E
0E
0E
0E
0E
0E
0E
0E
0E
0E
0E
0E
0E
0E
0E
0E
0E
0E
FE
FE
FE
ENDCHAR
STARTCHAR asciicircum
ENCODING 94
SWIDTH 469 0
DWIDTH 17 0
BBX 15 14 1 12
BITMAP
0380
07C0
07C0
0EE0
0EE0
0C60
1C70
1C70
3838
3838
701C
701C
701C
E00E
ENDCHAR
STARTCHAR underscore
ENCODING 95
SWIDTH 556 0
DWIDTH 20 0
BBX 21 3 -1 -7
BITMAP
FFFFF8
FFFFF8
FFFFF8
ENDCHAR
STARTCHAR grave
ENCODING 96
SWIDTH 333 0
DWIDTH 12 0
BBX 6 5 1 21
BITMAP
F0
78
38
18
0C
ENDCHAR
STARTCHAR a
ENCODING 97
SWIDTH 556 0
DWIDTH 20 0
BBX 17 19 2 0
BITMAP
07F000
1FFC00
3FFE00
781F00
F00700
E00700
000700
001F00
07FF00
3FFF00
7FE700
780700
E00700
E00F00
E01F00
F03F00
7FFF00
3FF700
1FC380
ENDCHAR
STARTCHAR b
ENCODING 98
SWIDTH 556 0
DWIDTH 20 0
BBX 16 26 2 0
BITMAP
E000
E000
E000
E000
E000
E000
E000
E3E0
EFF8
FFFC
FC3E
F81E
F00E
E007
E007
E007
E007
E007
E007
E007
F00E
F01E
FC3C
FFFC
EFF8
E3E0
ENDCHAR
STARTCHAR c
ENCODING 99
SWIDTH 500 0
DWIDTH 18 0
BBX 16 19 1 0
BITMAP
03E0
0FF8
1FFC
3C1E
780F
7007
E000
E000
E000
E000
E000
E000
E007
7007
780E
7C1E
3FFC
1FF8
07E0
ENDCHAR
STARTCHAR d
ENCODING 100
SWIDTH 556 0
DWIDTH 20 0
BBX 16 26 2 0
BITMAP
0007
0007
0007
0007
0007
0007
0007
07C7
1FF7
3FFF
7C3F
701F
700F
E007
E007
E007
E007
E007
E007
E007
700F
781F
3C3F
3FFF
1FF7
07C7
ENDCHAR
STARTCHAR e
ENCODING 101
SWIDTH 556 0
DWIDTH 20 0
BBX 16 19 2 0
BITMAP
07E0
1FF8
3FFC
3C3E
700E
6006
E007
FFFF
FFFF
FFFF
E000
E000
E000
7007
780E
7C1E
3FFC
1FF8
07E0
ENDCHAR
STARTCHAR f
ENCODING 102
SWIDTH 277 0
DWIDTH 10 0
BBX 11 26 0 0
BITMAP
07E0
0FE0
1FE0
1E00
1C00
1C00
1C00
FFC0
FFC0
FFC0
1C00
1C00
1C00
1C00
1C00
1C00
1C00
1C00
1C00
1C00
1C00
1C00
1C00
1C00
1C00
1C00
ENDCHAR
STARTCHAR g
ENCODING 103
SWIDTH 556 0
DWIDTH 20 0
BBX 16 26 2 -7
BITMAP
07C7
1FF7
3FFF
3C3F
781F
700F
E007
E007
E007
E007
E007
E007
E007
700F
781F
3C3F
3FFF
1FF7
07E7
0007
E007
F00E
F81E
7FFC
3FF8
0FE0
ENDCHAR
STARTCHAR h
ENCODING 104
SWIDTH 556 0
DWIDTH 19 0
BBX 15 26 2 0
BITMAP
E000
E000
E000
E000
E000
E000
E000
E3E0
EFF8
FFFC
FC3E
F01E
F00E
E00E
E00E
E00E
E00E
E00E
E00E
E00E
E00E
E00E
E00E
E00E
E00E
E00E
ENDCHAR
STARTCHAR i
ENCODING 105
SWIDTH 222 0
DWIDTH 7 0
BBX 3 26 2 0
BITMAP
E0
E0
E0
00
00
00
00
E0
E0
E0
E0
E0
E0
E0
E0
E0
E0
E0
E0
E0
E0
E0
E0
E0
E0
E0
ENDCHAR
STARTCHAR j
ENCODING 106
SWIDTH 222 0
DWIDTH 9 0
BBX 8 33 -2 -7
BITMAP
07
07
07
00
00
00
00
07
07
07
07
07
07
07
07
07
07
07
07
07
07
07
07
07
07
07
07
07
07
0F
7E
7E
FC
ENDCHAR
STARTCHAR k
ENCODING 107
SWIDTH 500 0
DWIDTH 19 0
BBX 16 26 3 0
BITMAP
E000
E000
E000
E000
E000
E000
E000
E01E
E03C
E078
E0F0
E3E0
E7C0
EF00
FE00
FF00
FF80
F3C0
E3C0
E1E0
E0F0
E078
E078
E03C
E01E
E00F
ENDCHAR
STARTCHAR l
ENCODING 108
SWIDTH 222 0
DWIDTH 7 0
BBX 3 26 2 0
BITMAP
E0
E0
E0
E0
E0
E0
E0
E0
E0
E0
E0
E0
E0
E0
E0
E0
E0
E0
E0
E0
E0
E0
E0
E0
E0
E0
ENDCHAR
STARTCHAR m
ENCODING 109
SWIDTH 833 0
DWIDTH 31 0
BBX 25 19 3 0
BITMAP
E3E07C00
EFF1FE00
EFFBFF00
FC3F0780
F03E0380
F01C0380
E01C0380
E01C0380
E01C0380
E01C0380
E01C0380
E01C0380
E01C0380
E01C0380
E01C0380
E01C0380
E01C0380
E01C0380
E01C0380
ENDCHAR
STARTCHAR n
ENCODING 110
SWIDTH 556 0
DWIDTH 19 0
BBX 15 19 2 0
BITMAP
E3E0
EFF8
FFFC
FC3E
F01E
F00E
E00E
E00E
E00E
E00E
E00E
E00E
E00E
E00E
E00E
E00E
E00E
E00E
E00E
ENDCHAR
STARTCHAR o
ENCODING 111
SWIDTH 556 0
DWIDTH 20 0
BBX 16 19 2 0
BITMAP
07E0
1FF8
3FFC
7C3E
781E
700E
E007
E007
E007
E007
E007
E007
E007
700E
781E
7C3E
3FFC
1FF8
07E0
ENDCHAR
STARTCHAR p
ENCODING 112
SWIDTH 556 0
DWIDTH 20 0
BBX 16 26 2 -7
BITMAP
E3E0
EFF8
EFFC
FC3E
F81E
F00E
E007
E007
E007
E007
E007
E007
E007
F00E
F01E
FC3C
FFFC
EFF0
E3E0
E000
E000
E000
E000
E000
E000
E000
ENDCHAR
STARTCHAR q
ENCODING 113
SWIDTH 556 0
DWIDTH 20 0
BBX 16 26 2 -7
BITMAP
07C7
1FF7
3FF7
7C3F
781F
700F
E00F
E007
E007
E007
E007
E007
E007
700F
781F
3C3F
3FFF
0FF7
07C7
0007
0007
0007
0007
0007
0007
0007
ENDCHAR
STARTCHAR r
ENCODING 114
SWIDTH 333 0
DWIDTH 12 0
BBX 10 19 2 0
BITMAP
E7C0
EFC0
FF80
F800
F000
F000
E000
E000
E000
E000
E000
E000
E000
E000
E000
E000
E000
E000
E000
ENDCHAR
STARTCHAR s
ENCODING 115
SWIDTH 500 0
DWIDTH 18 0
BBX 16 19 1 0
BITMAP
0FE0
3FF8
7FFC
F01E
E00E
E000
F000
7E00
7FE0
1FFC
03FE
003F
000F
E007
F007
781E
7FFE
1FFC
07F0
ENDCHAR
STARTCHAR t
ENCODING 116
SWIDTH 277 0
DWIDTH 10 0
BBX 10 25 0 0
BITMAP
0C00
1C00
1C00
1C00
1C00
1C00
FFC0
FFC0
FFC0
1C00
1C00
1C00
1C00
1C00
1C00
1C00
1C00
1C00
1C00
1C00
1C00
1C00
1FC0
0FC0
07C0
ENDCHAR
STARTCHAR u
ENCODING 117
SWIDTH 556 0
DWIDTH 19 0
BBX 15 19 2 0
BITMAP
E00E
E00E
E00E
E00E
E00E
E00E
E00E
E00E
E00E
E00E
E00E
E00E
E00E
E01E
F01E
F87E
7FEE
3FCE
0F8E
ENDCHAR
STARTCHAR v
ENCODING 118
SWIDTH 500 0
DWIDTH 17 0
BBX 17 19 0 0
BITMAP
E00380
700700
700700
700700
380E00
380E00
3C1E00
1C1C00
1C1C00
0E3800
0E3800
0E3800
077000
077000
077000
03E000
03E000
01C000
01C000
ENDCHAR
STARTCHAR w
ENCODING 119
SWIDTH 722 0
DWIDTH 25 0
BBX 25 19 0 0
BITMAP
E01C0380
E01C0380
E03E0380
703E0700
70360700
70360F00
38770E00
38730E00
1C631C00
1C631C00
1C631C00
0EE3B800
0EC1B800
0EC1B800
06C1B000
07C1F000
0780E000
0380E000
0380E000
ENDCHAR
STARTCHAR x
ENCODING 120
SWIDTH 500 0
DWIDTH 16 0
BBX 16 19 0 0
BITMAP
F007
700E
381E
3C1C
1C38
0E78
0F70
07E0
03E0
03C0
03C0
07E0
0FF0
0E70
1E38
3C3C
381C
700E
F00F
ENDCHAR
STARTCHAR y
ENCODING 121
SWIDTH 500 0
DWIDTH 17 0
BBX 17 26 0 -7
BITMAP
E00380
700780
700700
780700
380F00
380E00
3C0E00
1C1C00
1C1C00
0E3C00
0E3800
0F3800
077800
077000
07F000
03E000
03E000
01E000
01C000
01C000
03C000
038000
078000
3F0000
3E0000
3C0000
ENDCHAR
STARTCHAR z
ENCODING 122
SWIDTH 500 0
DWIDTH 17 0
BBX 16 19 0 0
BITMAP
7FFF
7FFF
7FFF
001E
003C
0078
0070
00F0
01E0
03C0
0780
0F00
1E00
3C00
7800
7000
FFFF
FFFF
FFFF
ENDCHAR
STARTCHAR braceleft
ENCODING 123
SWIDTH 333 0
DWIDTH 12 0
BBX 11 33 1 -7
BITMAP
01E0
07E0
07E0
0F00
0E00
0E00
0E00
0E00
0E00
0E00
0E00
0E00
0E00
1C00
3C00
F800
E000
F800
3C00
1C00
0E00
0E00
0E00
0E00
0E00
0E00
0E00
0E00
0E00
0F00
07E0
07E0
01E0
ENDCHAR
STARTCHAR bar
ENCODING 124
SWIDTH 259 0
DWIDTH 9 0
BBX 3 34 3 -8
BITMAP
E0
E0
E0
E0
E0
E0
E0
E0
E0
E0
E0
E0
E0
E0
E0
E0
E0
E0
E0
E0
E0
E0
E0
E0
E0
E0
E0
E0
E0
E0
E0
E0
E0
E0
ENDCHAR
STARTCHAR braceright
ENCODING 125
SWIDTH 333 0
DWIDTH 12 0
BBX 11 33 0 -7
BITMAP
F000
FC00
FC00
1E00
0E00
0E00
0E00
0E00
0E00
0E00
0E00
0E00
0E00
0700
0780
03E0
00E0
03E0
0780
0F00
0E00
0E00
0E00
0E00
0E00
0E00
0E00
0E00
0E00
1E00
FC00
FC00
F000
ENDCHAR
STARTCHAR asciitilde
ENCODING 126
SWIDTH 583 0
DWIDTH 21 0
BBX 18 6 2 10
BITMAP
1E0000
7FC040
FFF1C0
E1FFC0
807F80
001E00
ENDCHAR
STARTCHAR space.dup1
ENCODING 160
SWIDTH 277 0
DWIDTH 10 0
BBX 1 1 0 0
BITMAP
00
ENDCHAR
ENDFONT
